<svg id="Layer_3" data-name="Layer 3" xmlns="http://www.w3.org/2000/svg" viewBox="0 0 538.54 128.54"><defs><style>.cls-1{fill:#231f20;}.cls-2,.cls-4{fill:none;}.cls-2,.cls-3,.cls-4{stroke:#231f20;stroke-miterlimit:10;}.cls-2,.cls-3{stroke-width:3px;}.cls-3{fill:#009444;}</style></defs><path class="cls-1" d="M270.33,190.67h5.33v10.68l10-10.68h7L282,201.33l11.18,15.25h-7l-8-11.31-2.61,2.65v8.66h-5.33Z" transform="translate(-270.33 -190.67)"/><path class="cls-1" d="M314.07,190.67v4.59h-7.75v21.32h-5.45V195.26h-7.79v-4.59Z" transform="translate(-270.33 -190.67)"/><path class="cls-1" d="M315.2,216.58V190.67h5.38v9.88h10.07v-9.88H336v25.91h-5.38V205H320.58v11.56Z" transform="translate(-270.33 -190.67)"/><path class="cls-1" d="M270.41,223.15h66.71v16.44H289.83V261.1h41.45v16.25H289.83v39.23H270.41Z" transform="translate(-270.33 -190.67)"/><path class="cls-1" d="M397.06,308.12q-8.76,10.81-26.6,10.81t-26.6-10.81q-8.76-10.81-8.76-26a40.34,40.34,0,0,1,8.76-25.94q8.76-11,26.6-11t26.6,11a40.34,40.34,0,0,1,8.76,25.94Q405.82,297.31,397.06,308.12Zm-14.48-10q4.26-5.64,4.26-16t-4.26-16q-4.24-5.61-12.18-5.61t-12.22,5.61q-4.29,5.61-4.29,16t4.29,16q4.27,5.64,12.22,5.64T382.58,298.12Z" transform="translate(-270.33 -190.67)"/><path class="cls-1" d="M470.46,308.12q-8.74,10.81-26.59,10.81t-26.6-10.81q-8.76-10.81-8.76-26a40.34,40.34,0,0,1,8.76-25.94q8.76-11,26.6-11t26.59,11a40.34,40.34,0,0,1,8.76,25.94Q479.22,297.31,470.46,308.12Zm-14.47-10q4.26-5.64,4.26-16t-4.26-16q-4.25-5.61-12.19-5.61t-12.21,5.61q-4.29,5.61-4.29,16t4.29,16q4.28,5.64,12.21,5.64T456,298.12Z" transform="translate(-270.33 -190.67)"/><path class="cls-1" d="M523.86,248.5a22.12,22.12,0,0,1,7.94,7.65v-33h18.34v93.43H532.56V307a25.53,25.53,0,0,1-8.82,8.95,24.81,24.81,0,0,1-12.32,2.79q-12.12,0-20.41-9.81t-8.28-25.16q0-17.72,8.16-27.87t21.8-10.16A22.32,22.32,0,0,1,523.86,248.5Zm4.45,49.29q4-5.7,4-14.79,0-12.69-6.42-18.15a13.79,13.79,0,0,0-9.14-3.3q-7.94,0-11.64,6t-3.72,14.88q0,9.58,3.78,15.33t11.46,5.75Q524.31,303.51,528.31,297.79Z" transform="translate(-270.33 -190.67)"/><path class="cls-1" d="M553.47,260.91V248h9.65v-19.3H581V248h11.24v12.88H581v36.57q0,4.25,1.08,5.3c.72.7,2.92,1,6.6,1l1.75,0c.61,0,1.21-.05,1.81-.09v13.52l-8.57.32q-12.83.43-17.52-4.45-3-3.1-3-9.58v-42.6Z" transform="translate(-270.33 -190.67)"/><path class="cls-1" d="M723.56,272.21a16,16,0,0,0-2.61-7c-2-2.79-5.2-4.19-9.48-4.19q-9.16,0-12.53,9.08a37.61,37.61,0,0,0-1.79,12.79,34.59,34.59,0,0,0,1.79,12.22q3.24,8.63,12.21,8.63,6.38,0,9-3.43a17,17,0,0,0,3.24-8.88h18.48a30.29,30.29,0,0,1-6,15.61q-8.5,11.88-25.22,11.87T686.12,309q-7.89-9.9-7.88-25.68,0-17.81,8.7-27.7t24-9.91q13,0,21.32,5.84t9.82,20.63Z" transform="translate(-270.33 -190.67)"/><path class="cls-1" d="M796.2,247.78a20.34,20.34,0,0,1,8.56,6.79,18.12,18.12,0,0,1,3.48,8,99,99,0,0,1,.63,13.37v40.66H790.4V274.45a18.62,18.62,0,0,0-1.89-9q-2.46-4.83-9.33-4.83c-4.74,0-8.35,1.6-10.8,4.8s-3.69,7.76-3.69,13.69v37.49H746.6V223.34h18.09v33a22.15,22.15,0,0,1,9.07-8.41,25.64,25.64,0,0,1,10.84-2.38A29.16,29.16,0,0,1,796.2,247.78Z" transform="translate(-270.33 -190.67)"/><path class="cls-2" d="M670.58,295H598.92l-.75.69-.69,1.06-.11,1.57v2.93l.11,1.32.38,1.12.06.94.5,1.06.37.94.57.87.43.94.44.88.69.81.5.69.75.93.69.75,1,.94.81.63.75.75.81.5.38.31.5.37,1.31.75,1.37.57,1.07.37h47.81l1.19-.31.56-.25a2.71,2.71,0,0,1,.81-.31,4.91,4.91,0,0,0,1.19-.75l1-.57.87-.43.63-.38.5-.5.56-.44.81-.75.44-.75,1.06-.87.44-.69.44-.44.56-.75.5-.75.63-.75.56-.87.37-.78.38-1.53.44-1.13.25-1.25.1-1.25v-3.44l-.12-.64-.55-.79-.56-.57-.44-.43Z" transform="translate(-270.33 -190.67)"/><polygon class="cls-3" points="329.2 87.66 400.76 87.66 401.7 87.9 402.63 88.41 403.65 89.76 404.45 91.67 404.45 93.21 404.45 95.12 404.45 95.9 404.18 96.95 403.87 97.84 403.2 98.7 402.06 99.44 401.33 99.83 329.2 99.83 327.95 99.83 326.47 99.2 325.59 98.39 325.1 96.51 325.1 94.7 325.1 92.63 325.2 91.27 325.3 90.37 325.94 89.12 327.08 88.13 327.83 87.66 328.26 87.66 329.2 87.66"/><path class="cls-2" d="M599.69,273.4h71.67l.75-.69.68-1.06.11-1.56v-2.94l-.11-1.31-.37-1.13-.06-.94-.5-1.06-.38-.94-.56-.87-.44-.94-.44-.87-.68-.82-.5-.68-.75-.94-.69-.75-1-.94-.81-.62-.75-.75-.82-.5-.37-.32-.5-.37-1.31-.75-1.38-.56-1.06-.38H611.61l-1.19.31-.56.25a2.75,2.75,0,0,1-.82.32c-.25,0-1.18.75-1.18.75l-1,.56-.88.44-.62.37-.5.5-.57.44-.81.75-.44.75L602,257l-.44.69-.43.44-.57.75-.5.75-.62.75-.56.87-.38.78-.37,1.54-.44,1.12-.36,1.29v5.4l.67.69.56.56.44.44Z" transform="translate(-270.33 -190.67)"/><path class="cls-4" d="M602.34,181.82" transform="translate(-270.33 -190.67)"/></svg>