<svg xmlns="http://www.w3.org/2000/svg" xmlns:xlink="http://www.w3.org/1999/xlink" width="919.865" height="351.636" viewBox="0 0 919.865 351.636">
    <defs>
        <clipPath id="clip-path">
            <rect id="Rectangle_100" data-name="Rectangle 100" width="919.865" height="351.636" fill="none"/>
        </clipPath>
        <clipPath id="clip-path-2">
            <rect id="Rectangle_99" data-name="Rectangle 99" width="919.866" height="351.635" fill="none"/>
        </clipPath>
        <clipPath id="clip-path-3">
            <rect id="Rectangle_63" data-name="Rectangle 63" width="154.416" height="258.752" fill="none"/>
        </clipPath>
        <clipPath id="clip-path-4">
            <rect id="Rectangle_64" data-name="Rectangle 64" width="71.539" height="71.537" fill="none"/>
        </clipPath>
        <clipPath id="clip-path-5">
            <rect id="Rectangle_80" data-name="Rectangle 80" width="112.817" height="84.55" fill="none"/>
        </clipPath>
    </defs>
    <g id="Group_13" data-name="Group 13" transform="translate(-1032 340.875)">
        <g id="Group_12" data-name="Group 12" transform="translate(1032 -340.875)" clip-path="url(#clip-path)">
            <g id="Group_11" data-name="Group 11" transform="translate(0 0.001)">
                <g id="Group_10" data-name="Group 10" clip-path="url(#clip-path-2)">
                    <path id="Path_1" data-name="Path 1" d="M888.5,348.859c-17.261,0-44.108-1.28-44.483-.841h-89.18l-26.1-.043H495.027l-68.254-.045H246.838l-75.154-.043H35.778l-.676-1.055-.075-.088s-.075-.088-.075-.131c-.3-.352-114.546-157.177,71.685-226,72.866-26.927-1.464-77.1,106.383-109.67,139.051-42,217.435,52.932,378.759,17.893C743.094-4.027,832.641,49.589,822.619,110.277c-4.707,28.506,3.694,70.983,35.3,76.739,49.353,8.99,60.357,62.433,53.166,108.965-4.433,28.687-21.968,52.877-22.579,52.877" transform="translate(0 -0.004)" fill="#ebf3fa"/>
                    <g id="Group_3" data-name="Group 3" transform="translate(174.706 87.732)" opacity="0.5">
                        <g id="Group_2" data-name="Group 2">
                            <g id="Group_1" data-name="Group 1" clip-path="url(#clip-path-3)">
                                <rect id="Rectangle_6" data-name="Rectangle 6" width="148.741" height="258.752" transform="translate(2.838)" fill="#dce9fb"/>
                                <rect id="Rectangle_7" data-name="Rectangle 7" width="148.741" height="3.539" transform="translate(3.784 87.293)" fill="#abc8f7"/>
                                <rect id="Rectangle_8" data-name="Rectangle 8" width="148.741" height="3.539" transform="translate(2.838 129.596)" fill="#abc8f7"/>
                                <rect id="Rectangle_9" data-name="Rectangle 9" width="147.853" height="4.037" transform="translate(3.784)" fill="#fff"/>
                                <rect id="Rectangle_10" data-name="Rectangle 10" width="3.784" height="258.752" fill="#fff"/>
                                <rect id="Rectangle_11" data-name="Rectangle 11" width="3.784" height="258.752" transform="translate(150.633)" fill="#fff"/>
                                <rect id="Rectangle_12" data-name="Rectangle 12" width="146.849" height="3.539" transform="translate(3.784 39.393)" fill="#abc8f7"/>
                                <rect id="Rectangle_13" data-name="Rectangle 13" width="146.849" height="3.539" transform="translate(3.784 175.628)" fill="#abc8f7"/>
                                <rect id="Rectangle_14" data-name="Rectangle 14" width="146.849" height="3.539" transform="translate(3.784 221.201)" fill="#abc8f7"/>
                                <path id="Path_2" data-name="Path 2" d="M729.445,686.691h-.085a1.87,1.87,0,0,1-1.87-1.87V673.314h3.824v11.507a1.87,1.87,0,0,1-1.87,1.87" transform="translate(-681.699 -556.971)" fill="#abc8f7"/>
                                <path id="Path_3" data-name="Path 3" d="M730.564,703.13H730.5a1.39,1.39,0,0,1-1.389-1.389v-4.077h2.842v4.077a1.389,1.389,0,0,1-1.389,1.389" transform="translate(-682.829 -573.941)" fill="#abc8f7"/>
                                <path id="Path_4" data-name="Path 4" d="M748.282,686.691H748.2a1.87,1.87,0,0,1-1.87-1.87V673.314h3.824v11.507a1.87,1.87,0,0,1-1.87,1.87" transform="translate(-694.827 -556.971)" fill="#abc8f7"/>
                                <path id="Path_5" data-name="Path 5" d="M749.4,700.509h-.063a1.39,1.39,0,0,1-1.39-1.389V693.9h2.841v5.217a1.389,1.389,0,0,1-1.389,1.389" transform="translate(-695.957 -571.32)" fill="#abc8f7"/>
                                <path id="Path_6" data-name="Path 6" d="M712.4,686.691h-.085a1.87,1.87,0,0,1-1.87-1.87V673.314h3.824v11.507a1.87,1.87,0,0,1-1.87,1.87" transform="translate(-669.821 -556.971)" fill="#abc8f7"/>
                                <path id="Path_7" data-name="Path 7" d="M713.518,700.509h-.063a1.39,1.39,0,0,1-1.389-1.389V693.9h2.841v5.217a1.389,1.389,0,0,1-1.389,1.389" transform="translate(-670.95 -571.32)" fill="#abc8f7"/>
                                <rect id="Rectangle_15" data-name="Rectangle 15" width="1.075" height="3.054" transform="translate(40.914 127.498)" fill="#abc8f7"/>
                                <rect id="Rectangle_16" data-name="Rectangle 16" width="1.075" height="3.054" transform="translate(59.306 127.498)" fill="#abc8f7"/>
                                <rect id="Rectangle_17" data-name="Rectangle 17" width="19.467" height="0.892" transform="translate(40.914 127.498)" fill="#abc8f7"/>
                                <path id="Path_8" data-name="Path 8" d="M966.348,835.414h-.085a1.87,1.87,0,0,1-1.87-1.87V822.038h3.824v11.506a1.87,1.87,0,0,1-1.87,1.87" transform="translate(-846.799 -660.618)" fill="#abc8f7"/>
                                <path id="Path_9" data-name="Path 9" d="M967.467,851.854H967.4a1.39,1.39,0,0,1-1.39-1.389v-4.076h2.842v4.076a1.389,1.389,0,0,1-1.389,1.389" transform="translate(-847.928 -677.588)" fill="#abc8f7"/>
                                <path id="Path_10" data-name="Path 10" d="M985.186,835.414H985.1a1.87,1.87,0,0,1-1.87-1.87V822.038h3.824v11.506a1.87,1.87,0,0,1-1.87,1.87" transform="translate(-859.927 -660.618)" fill="#abc8f7"/>
                                <path id="Path_11" data-name="Path 11" d="M986.3,849.233h-.063a1.389,1.389,0,0,1-1.389-1.389v-5.216h2.841v5.216a1.389,1.389,0,0,1-1.389,1.389" transform="translate(-861.057 -674.967)" fill="#abc8f7"/>
                                <path id="Path_12" data-name="Path 12" d="M949.3,835.414h-.085a1.87,1.87,0,0,1-1.87-1.87V822.038h3.824v11.506a1.87,1.87,0,0,1-1.87,1.87" transform="translate(-834.921 -660.618)" fill="#abc8f7"/>
                                <path id="Path_13" data-name="Path 13" d="M950.423,849.233h-.063a1.389,1.389,0,0,1-1.389-1.389v-5.216h2.841v5.216a1.389,1.389,0,0,1-1.389,1.389" transform="translate(-836.051 -674.967)" fill="#abc8f7"/>
                                <rect id="Rectangle_18" data-name="Rectangle 18" width="1.075" height="3.054" transform="translate(112.718 172.575)" fill="#abc8f7"/>
                                <rect id="Rectangle_19" data-name="Rectangle 19" width="1.075" height="3.054" transform="translate(131.109 172.575)" fill="#abc8f7"/>
                                <rect id="Rectangle_20" data-name="Rectangle 20" width="19.467" height="0.892" transform="translate(112.718 172.575)" fill="#abc8f7"/>
                                <path id="Path_14" data-name="Path 14" d="M651.829,686.691h-.085a1.87,1.87,0,0,1-1.87-1.87V673.314H653.7v11.507a1.87,1.87,0,0,1-1.87,1.87" transform="translate(-627.608 -556.971)" fill="#abc8f7"/>
                                <path id="Path_15" data-name="Path 15" d="M652.948,703.13h-.063a1.389,1.389,0,0,1-1.389-1.389v-4.077h2.841v4.077a1.39,1.39,0,0,1-1.389,1.389" transform="translate(-628.739 -573.941)" fill="#abc8f7"/>
                                <path id="Path_16" data-name="Path 16" d="M670.666,686.691h-.085a1.87,1.87,0,0,1-1.87-1.87V673.314h3.824v11.507a1.87,1.87,0,0,1-1.87,1.87" transform="translate(-640.736 -556.971)" fill="#abc8f7"/>
                                <path id="Path_17" data-name="Path 17" d="M671.785,700.509h-.063a1.39,1.39,0,0,1-1.389-1.389V693.9h2.841v5.217a1.389,1.389,0,0,1-1.389,1.389" transform="translate(-641.866 -571.32)" fill="#abc8f7"/>
                                <path id="Path_18" data-name="Path 18" d="M634.784,686.691H634.7a1.87,1.87,0,0,1-1.87-1.87V673.314h3.824v11.507a1.87,1.87,0,0,1-1.87,1.87" transform="translate(-615.729 -556.971)" fill="#abc8f7"/>
                                <path id="Path_19" data-name="Path 19" d="M635.9,700.509h-.063a1.389,1.389,0,0,1-1.389-1.389V693.9h2.841v5.217a1.389,1.389,0,0,1-1.389,1.389" transform="translate(-616.86 -571.32)" fill="#abc8f7"/>
                                <rect id="Rectangle_21" data-name="Rectangle 21" width="1.075" height="3.054" transform="translate(17.389 127.498)" fill="#abc8f7"/>
                                <rect id="Rectangle_22" data-name="Rectangle 22" width="1.075" height="3.054" transform="translate(35.781 127.498)" fill="#abc8f7"/>
                                <rect id="Rectangle_23" data-name="Rectangle 23" width="19.467" height="0.892" transform="translate(17.389 127.498)" fill="#abc8f7"/>
                                <path id="Path_20" data-name="Path 20" d="M784.162,835.414h-.085a1.87,1.87,0,0,1-1.87-1.87V822.038h3.824v11.506a1.87,1.87,0,0,1-1.87,1.87" transform="translate(-719.832 -660.618)" fill="#abc8f7"/>
                                <path id="Path_21" data-name="Path 21" d="M785.281,851.854h-.063a1.389,1.389,0,0,1-1.389-1.389v-4.076h2.841v4.076a1.389,1.389,0,0,1-1.389,1.389" transform="translate(-720.962 -677.588)" fill="#abc8f7"/>
                                <path id="Path_22" data-name="Path 22" d="M803,835.414h-.085a1.87,1.87,0,0,1-1.87-1.87V822.038h3.824v11.506a1.87,1.87,0,0,1-1.87,1.87" transform="translate(-732.96 -660.618)" fill="#abc8f7"/>
                                <path id="Path_23" data-name="Path 23" d="M804.119,849.233h-.063a1.389,1.389,0,0,1-1.389-1.389v-5.216h2.841v5.216a1.389,1.389,0,0,1-1.389,1.389" transform="translate(-734.091 -674.967)" fill="#abc8f7"/>
                                <path id="Path_24" data-name="Path 24" d="M767.118,835.414h-.085a1.87,1.87,0,0,1-1.87-1.87V822.038h3.824v11.506a1.87,1.87,0,0,1-1.87,1.87" transform="translate(-707.954 -660.618)" fill="#abc8f7"/>
                                <path id="Path_25" data-name="Path 25" d="M768.236,849.233h-.063a1.389,1.389,0,0,1-1.389-1.389v-5.216h2.842v5.216a1.389,1.389,0,0,1-1.389,1.389" transform="translate(-709.084 -674.967)" fill="#abc8f7"/>
                                <rect id="Rectangle_24" data-name="Rectangle 24" width="1.075" height="3.054" transform="translate(57.499 172.575)" fill="#abc8f7"/>
                                <rect id="Rectangle_25" data-name="Rectangle 25" width="1.075" height="3.054" transform="translate(75.89 172.575)" fill="#abc8f7"/>
                                <rect id="Rectangle_26" data-name="Rectangle 26" width="19.467" height="0.892" transform="translate(57.498 172.575)" fill="#abc8f7"/>
                                <path id="Path_26" data-name="Path 26" d="M706.546,835.414h-.085a1.87,1.87,0,0,1-1.87-1.87V822.038h3.824v11.506a1.87,1.87,0,0,1-1.87,1.87" transform="translate(-665.741 -660.618)" fill="#abc8f7"/>
                                <path id="Path_27" data-name="Path 27" d="M707.664,851.854H707.6a1.389,1.389,0,0,1-1.389-1.389v-4.076h2.842v4.076a1.389,1.389,0,0,1-1.389,1.389" transform="translate(-666.871 -677.588)" fill="#abc8f7"/>
                                <path id="Path_28" data-name="Path 28" d="M725.384,835.414H725.3a1.87,1.87,0,0,1-1.87-1.87V822.038h3.824v11.506a1.87,1.87,0,0,1-1.87,1.87" transform="translate(-678.869 -660.618)" fill="#abc8f7"/>
                                <path id="Path_29" data-name="Path 29" d="M726.5,849.233h-.063a1.389,1.389,0,0,1-1.389-1.389v-5.216h2.841v5.216a1.389,1.389,0,0,1-1.389,1.389" transform="translate(-679.999 -674.967)" fill="#abc8f7"/>
                                <path id="Path_30" data-name="Path 30" d="M689.5,835.414h-.085a1.87,1.87,0,0,1-1.87-1.87V822.038h3.824v11.506a1.87,1.87,0,0,1-1.87,1.87" transform="translate(-653.862 -660.618)" fill="#abc8f7"/>
                                <path id="Path_31" data-name="Path 31" d="M690.62,849.233h-.063a1.389,1.389,0,0,1-1.389-1.389v-5.216h2.841v5.216a1.389,1.389,0,0,1-1.389,1.389" transform="translate(-654.992 -674.967)" fill="#abc8f7"/>
                                <rect id="Rectangle_27" data-name="Rectangle 27" width="1.075" height="3.054" transform="translate(33.974 172.575)" fill="#abc8f7"/>
                                <rect id="Rectangle_28" data-name="Rectangle 28" width="1.075" height="3.054" transform="translate(52.365 172.575)" fill="#abc8f7"/>
                                <rect id="Rectangle_29" data-name="Rectangle 29" width="19.467" height="0.892" transform="translate(33.974 172.575)" fill="#abc8f7"/>
                                <path id="Path_32" data-name="Path 32" d="M737,986.342h-.085a1.87,1.87,0,0,1-1.87-1.87V972.966h3.824v11.506a1.87,1.87,0,0,1-1.87,1.87" transform="translate(-686.964 -765.801)" fill="#abc8f7"/>
                                <path id="Path_33" data-name="Path 33" d="M738.119,1002.781h-.063a1.389,1.389,0,0,1-1.389-1.389v-4.077h2.841v4.077a1.389,1.389,0,0,1-1.389,1.389" transform="translate(-688.095 -782.77)" fill="#abc8f7"/>
                                <path id="Path_34" data-name="Path 34" d="M755.837,986.342h-.085a1.87,1.87,0,0,1-1.87-1.87V972.966h3.824v11.506a1.87,1.87,0,0,1-1.87,1.87" transform="translate(-700.092 -765.801)" fill="#abc8f7"/>
                                <path id="Path_35" data-name="Path 35" d="M756.956,1000.16h-.063a1.39,1.39,0,0,1-1.389-1.389v-5.216h2.842v5.216a1.39,1.39,0,0,1-1.389,1.389" transform="translate(-701.223 -780.149)" fill="#abc8f7"/>
                                <path id="Path_36" data-name="Path 36" d="M719.955,986.342h-.085a1.87,1.87,0,0,1-1.87-1.87V972.966h3.824v11.506a1.87,1.87,0,0,1-1.87,1.87" transform="translate(-675.086 -765.801)" fill="#abc8f7"/>
                                <path id="Path_37" data-name="Path 37" d="M721.074,1000.16h-.063a1.39,1.39,0,0,1-1.39-1.389v-5.216h2.841v5.216a1.389,1.389,0,0,1-1.389,1.389" transform="translate(-676.215 -780.149)" fill="#abc8f7"/>
                                <rect id="Rectangle_30" data-name="Rectangle 30" width="1.075" height="3.054" transform="translate(43.204 218.32)" fill="#abc8f7"/>
                                <rect id="Rectangle_31" data-name="Rectangle 31" width="1.075" height="3.054" transform="translate(61.595 218.32)" fill="#abc8f7"/>
                                <rect id="Rectangle_32" data-name="Rectangle 32" width="19.467" height="0.892" transform="translate(43.204 218.32)" fill="#abc8f7"/>
                                <path id="Path_38" data-name="Path 38" d="M833.006,986.342h-.085a1.87,1.87,0,0,1-1.87-1.87V972.966h3.824v11.506a1.87,1.87,0,0,1-1.87,1.87" transform="translate(-753.872 -765.801)" fill="#abc8f7"/>
                                <path id="Path_39" data-name="Path 39" d="M834.125,1002.781h-.063a1.39,1.39,0,0,1-1.389-1.389v-4.077h2.841v4.077a1.389,1.389,0,0,1-1.389,1.389" transform="translate(-755.002 -782.77)" fill="#abc8f7"/>
                                <path id="Path_40" data-name="Path 40" d="M851.844,986.342h-.085a1.87,1.87,0,0,1-1.87-1.87V972.966h3.824v11.506a1.87,1.87,0,0,1-1.87,1.87" transform="translate(-767 -765.801)" fill="#abc8f7"/>
                                <path id="Path_41" data-name="Path 41" d="M852.963,1000.16H852.9a1.39,1.39,0,0,1-1.389-1.389v-5.216h2.841v5.216a1.389,1.389,0,0,1-1.389,1.389" transform="translate(-768.13 -780.149)" fill="#abc8f7"/>
                                <path id="Path_42" data-name="Path 42" d="M815.962,986.342h-.085a1.87,1.87,0,0,1-1.87-1.87V972.966h3.824v11.506a1.87,1.87,0,0,1-1.87,1.87" transform="translate(-741.994 -765.801)" fill="#abc8f7"/>
                                <path id="Path_43" data-name="Path 43" d="M817.081,1000.16h-.063a1.389,1.389,0,0,1-1.389-1.389v-5.216h2.841v5.216a1.389,1.389,0,0,1-1.389,1.389" transform="translate(-743.124 -780.149)" fill="#abc8f7"/>
                                <rect id="Rectangle_33" data-name="Rectangle 33" width="1.075" height="3.054" transform="translate(72.303 218.32)" fill="#abc8f7"/>
                                <rect id="Rectangle_34" data-name="Rectangle 34" width="1.075" height="3.054" transform="translate(90.694 218.32)" fill="#abc8f7"/>
                                <rect id="Rectangle_35" data-name="Rectangle 35" width="19.467" height="0.892" transform="translate(72.303 218.32)" fill="#abc8f7"/>
                                <path id="Path_44" data-name="Path 44" d="M628.93,986.342h-.085a1.87,1.87,0,0,1-1.87-1.87V972.966H630.8v11.506a1.87,1.87,0,0,1-1.87,1.87" transform="translate(-611.65 -765.801)" fill="#abc8f7"/>
                                <path id="Path_45" data-name="Path 45" d="M630.049,1002.781h-.063a1.39,1.39,0,0,1-1.389-1.389v-4.077h2.841v4.077a1.389,1.389,0,0,1-1.389,1.389" transform="translate(-612.78 -782.77)" fill="#abc8f7"/>
                                <path id="Path_46" data-name="Path 46" d="M647.768,986.342h-.085a1.87,1.87,0,0,1-1.87-1.87V972.966h3.824v11.506a1.87,1.87,0,0,1-1.87,1.87" transform="translate(-624.778 -765.801)" fill="#abc8f7"/>
                                <path id="Path_47" data-name="Path 47" d="M648.887,1000.16h-.063a1.389,1.389,0,0,1-1.389-1.389v-5.216h2.841v5.216a1.389,1.389,0,0,1-1.389,1.389" transform="translate(-625.908 -780.149)" fill="#abc8f7"/>
                                <path id="Path_48" data-name="Path 48" d="M611.886,986.342H611.8a1.87,1.87,0,0,1-1.87-1.87V972.966h3.824v11.506a1.87,1.87,0,0,1-1.87,1.87" transform="translate(-599.772 -765.801)" fill="#abc8f7"/>
                                <path id="Path_49" data-name="Path 49" d="M613.005,1000.16h-.063a1.389,1.389,0,0,1-1.389-1.389v-5.216h2.841v5.216a1.389,1.389,0,0,1-1.389,1.389" transform="translate(-600.902 -780.149)" fill="#abc8f7"/>
                                <rect id="Rectangle_36" data-name="Rectangle 36" width="1.075" height="3.054" transform="translate(10.449 218.32)" fill="#abc8f7"/>
                                <rect id="Rectangle_37" data-name="Rectangle 37" width="1.075" height="3.054" transform="translate(28.84 218.32)" fill="#abc8f7"/>
                                <rect id="Rectangle_38" data-name="Rectangle 38" width="19.467" height="0.892" transform="translate(10.449 218.32)" fill="#abc8f7"/>
                                <path id="Path_50" data-name="Path 50" d="M651.829,545.136h-.085a1.87,1.87,0,0,1-1.87-1.87V531.76H653.7v11.507a1.87,1.87,0,0,1-1.87,1.87" transform="translate(-627.608 -458.321)" fill="#abc8f7"/>
                                <path id="Path_51" data-name="Path 51" d="M652.948,561.575h-.063a1.389,1.389,0,0,1-1.389-1.389v-4.077h2.841v4.077a1.389,1.389,0,0,1-1.389,1.389" transform="translate(-628.739 -475.29)" fill="#abc8f7"/>
                                <path id="Path_52" data-name="Path 52" d="M670.666,545.136h-.085a1.87,1.87,0,0,1-1.87-1.87V531.76h3.824v11.507a1.87,1.87,0,0,1-1.87,1.87" transform="translate(-640.736 -458.321)" fill="#abc8f7"/>
                                <path id="Path_53" data-name="Path 53" d="M671.785,558.955h-.063a1.389,1.389,0,0,1-1.389-1.389v-5.216h2.841v5.216a1.389,1.389,0,0,1-1.389,1.389" transform="translate(-641.866 -472.67)" fill="#abc8f7"/>
                                <path id="Path_54" data-name="Path 54" d="M634.784,545.136H634.7a1.87,1.87,0,0,1-1.87-1.87V531.76h3.824v11.507a1.87,1.87,0,0,1-1.87,1.87" transform="translate(-615.729 -458.321)" fill="#abc8f7"/>
                                <path id="Path_55" data-name="Path 55" d="M635.9,558.955h-.063a1.389,1.389,0,0,1-1.389-1.389v-5.216h2.841v5.216a1.389,1.389,0,0,1-1.389,1.389" transform="translate(-616.86 -472.67)" fill="#abc8f7"/>
                                <rect id="Rectangle_39" data-name="Rectangle 39" width="1.075" height="3.054" transform="translate(17.389 84.593)" fill="#abc8f7"/>
                                <rect id="Rectangle_40" data-name="Rectangle 40" width="1.075" height="3.054" transform="translate(35.781 84.593)" fill="#abc8f7"/>
                                <rect id="Rectangle_41" data-name="Rectangle 41" width="19.467" height="0.892" transform="translate(17.389 84.594)" fill="#abc8f7"/>
                                <path id="Path_56" data-name="Path 56" d="M750.925,545.136h-.085a1.87,1.87,0,0,1-1.87-1.87V531.76h3.824v11.507a1.87,1.87,0,0,1-1.87,1.87" transform="translate(-696.669 -458.321)" fill="#abc8f7"/>
                                <path id="Path_57" data-name="Path 57" d="M752.044,561.575h-.063a1.389,1.389,0,0,1-1.389-1.389v-4.077h2.841v4.077a1.389,1.389,0,0,1-1.389,1.389" transform="translate(-697.799 -475.29)" fill="#abc8f7"/>
                                <path id="Path_58" data-name="Path 58" d="M769.763,545.136h-.084a1.87,1.87,0,0,1-1.87-1.87V531.76h3.824v11.507a1.87,1.87,0,0,1-1.87,1.87" transform="translate(-709.797 -458.321)" fill="#abc8f7"/>
                                <path id="Path_59" data-name="Path 59" d="M770.881,558.955h-.063a1.389,1.389,0,0,1-1.389-1.389v-5.216h2.842v5.216a1.389,1.389,0,0,1-1.389,1.389" transform="translate(-710.927 -472.67)" fill="#abc8f7"/>
                                <path id="Path_60" data-name="Path 60" d="M733.88,545.136h-.085a1.87,1.87,0,0,1-1.87-1.87V531.76h3.824v11.507a1.87,1.87,0,0,1-1.87,1.87" transform="translate(-684.79 -458.321)" fill="#abc8f7"/>
                                <path id="Path_61" data-name="Path 61" d="M735,558.955h-.063a1.389,1.389,0,0,1-1.389-1.389v-5.216h2.842v5.216A1.389,1.389,0,0,1,735,558.955" transform="translate(-685.92 -472.67)" fill="#abc8f7"/>
                                <rect id="Rectangle_42" data-name="Rectangle 42" width="1.075" height="3.054" transform="translate(47.425 84.593)" fill="#abc8f7"/>
                                <rect id="Rectangle_43" data-name="Rectangle 43" width="1.075" height="3.054" transform="translate(65.816 84.593)" fill="#abc8f7"/>
                                <rect id="Rectangle_44" data-name="Rectangle 44" width="19.467" height="0.892" transform="translate(47.425 84.594)" fill="#abc8f7"/>
                                <path id="Path_62" data-name="Path 62" d="M746.375,385.93h-.085a1.87,1.87,0,0,1-1.87-1.87V372.554h3.824v11.507a1.87,1.87,0,0,1-1.87,1.87" transform="translate(-693.498 -347.369)" fill="#abc8f7"/>
                                <path id="Path_63" data-name="Path 63" d="M747.493,402.369h-.063a1.389,1.389,0,0,1-1.389-1.389V396.9h2.841v4.077a1.389,1.389,0,0,1-1.389,1.389" transform="translate(-694.628 -364.338)" fill="#abc8f7"/>
                                <path id="Path_64" data-name="Path 64" d="M765.213,385.93h-.085a1.87,1.87,0,0,1-1.87-1.87V372.554h3.824v11.507a1.87,1.87,0,0,1-1.87,1.87" transform="translate(-706.626 -347.369)" fill="#abc8f7"/>
                                <path id="Path_65" data-name="Path 65" d="M766.332,399.748h-.063a1.389,1.389,0,0,1-1.389-1.389v-5.216h2.841v5.216a1.389,1.389,0,0,1-1.389,1.389" transform="translate(-707.757 -361.717)" fill="#abc8f7"/>
                                <path id="Path_66" data-name="Path 66" d="M729.33,385.93h-.085a1.87,1.87,0,0,1-1.87-1.87V372.554H731.2v11.507a1.87,1.87,0,0,1-1.87,1.87" transform="translate(-681.619 -347.369)" fill="#abc8f7"/>
                                <path id="Path_67" data-name="Path 67" d="M730.449,399.748h-.063a1.39,1.39,0,0,1-1.39-1.389v-5.216h2.842v5.216a1.389,1.389,0,0,1-1.389,1.389" transform="translate(-682.749 -361.717)" fill="#abc8f7"/>
                                <rect id="Rectangle_45" data-name="Rectangle 45" width="1.075" height="3.054" transform="translate(46.046 36.339)" fill="#abc8f7"/>
                                <rect id="Rectangle_46" data-name="Rectangle 46" width="1.075" height="3.054" transform="translate(64.437 36.339)" fill="#abc8f7"/>
                                <rect id="Rectangle_47" data-name="Rectangle 47" width="19.467" height="0.892" transform="translate(46.046 36.339)" fill="#abc8f7"/>
                                <path id="Path_68" data-name="Path 68" d="M910.645,385.93h-.085a1.87,1.87,0,0,1-1.87-1.87V372.554h3.824v11.507a1.87,1.87,0,0,1-1.869,1.87" transform="translate(-807.979 -347.369)" fill="#abc8f7"/>
                                <path id="Path_69" data-name="Path 69" d="M911.764,402.369H911.7a1.389,1.389,0,0,1-1.389-1.389V396.9h2.841v4.077a1.389,1.389,0,0,1-1.389,1.389" transform="translate(-809.109 -364.338)" fill="#abc8f7"/>
                                <path id="Path_70" data-name="Path 70" d="M929.483,385.93H929.4a1.87,1.87,0,0,1-1.87-1.87V372.554h3.824v11.507a1.87,1.87,0,0,1-1.87,1.87" transform="translate(-821.107 -347.369)" fill="#abc8f7"/>
                                <path id="Path_71" data-name="Path 71" d="M930.6,399.748h-.063a1.389,1.389,0,0,1-1.39-1.389v-5.216h2.842v5.216a1.389,1.389,0,0,1-1.389,1.389" transform="translate(-822.237 -361.717)" fill="#abc8f7"/>
                                <path id="Path_72" data-name="Path 72" d="M893.6,385.93h-.085a1.87,1.87,0,0,1-1.87-1.87V372.554h3.825v11.507a1.87,1.87,0,0,1-1.87,1.87" transform="translate(-796.101 -347.369)" fill="#abc8f7"/>
                                <path id="Path_73" data-name="Path 73" d="M894.719,399.748h-.063a1.39,1.39,0,0,1-1.39-1.389v-5.216h2.842v5.216a1.389,1.389,0,0,1-1.389,1.389" transform="translate(-797.231 -361.717)" fill="#abc8f7"/>
                                <rect id="Rectangle_48" data-name="Rectangle 48" width="1.075" height="3.054" transform="translate(95.835 36.339)" fill="#abc8f7"/>
                                <rect id="Rectangle_49" data-name="Rectangle 49" width="1.075" height="3.054" transform="translate(114.226 36.339)" fill="#abc8f7"/>
                                <rect id="Rectangle_50" data-name="Rectangle 50" width="19.467" height="0.892" transform="translate(95.835 36.339)" fill="#abc8f7"/>
                                <path id="Path_74" data-name="Path 74" d="M835.935,545.136h-.084a1.87,1.87,0,0,1-1.87-1.87V531.76H837.8v11.507a1.87,1.87,0,0,1-1.87,1.87" transform="translate(-755.913 -458.321)" fill="#abc8f7"/>
                                <path id="Path_75" data-name="Path 75" d="M837.054,561.575h-.063a1.389,1.389,0,0,1-1.389-1.389v-4.077h2.841v4.077a1.389,1.389,0,0,1-1.389,1.389" transform="translate(-757.043 -475.29)" fill="#abc8f7"/>
                                <path id="Path_76" data-name="Path 76" d="M854.772,545.136h-.085a1.87,1.87,0,0,1-1.87-1.87V531.76h3.824v11.507a1.87,1.87,0,0,1-1.87,1.87" transform="translate(-769.041 -458.321)" fill="#abc8f7"/>
                                <path id="Path_77" data-name="Path 77" d="M855.891,558.955h-.063a1.389,1.389,0,0,1-1.389-1.389v-5.216h2.841v5.216a1.389,1.389,0,0,1-1.389,1.389" transform="translate(-770.171 -472.67)" fill="#abc8f7"/>
                                <path id="Path_78" data-name="Path 78" d="M818.89,545.136h-.085a1.87,1.87,0,0,1-1.87-1.87V531.76h3.824v11.507a1.87,1.87,0,0,1-1.87,1.87" transform="translate(-744.034 -458.321)" fill="#abc8f7"/>
                                <path id="Path_79" data-name="Path 79" d="M820.009,558.955h-.063a1.389,1.389,0,0,1-1.39-1.389v-5.216H821.4v5.216a1.389,1.389,0,0,1-1.389,1.389" transform="translate(-745.164 -472.67)" fill="#abc8f7"/>
                                <rect id="Rectangle_51" data-name="Rectangle 51" width="1.075" height="3.054" transform="translate(73.191 84.593)" fill="#abc8f7"/>
                                <rect id="Rectangle_52" data-name="Rectangle 52" width="1.075" height="3.054" transform="translate(91.582 84.593)" fill="#abc8f7"/>
                                <rect id="Rectangle_53" data-name="Rectangle 53" width="19.467" height="0.892" transform="translate(73.191 84.594)" fill="#abc8f7"/>
                                <path id="Path_80" data-name="Path 80" d="M932.24,545.136h-.085a1.87,1.87,0,0,1-1.87-1.87V531.76h3.824v11.507a1.87,1.87,0,0,1-1.87,1.87" transform="translate(-823.029 -458.321)" fill="#abc8f7"/>
                                <path id="Path_81" data-name="Path 81" d="M933.358,561.575H933.3a1.389,1.389,0,0,1-1.389-1.389v-4.077h2.842v4.077a1.389,1.389,0,0,1-1.389,1.389" transform="translate(-824.158 -475.29)" fill="#abc8f7"/>
                                <path id="Path_82" data-name="Path 82" d="M951.078,545.136h-.085a1.87,1.87,0,0,1-1.87-1.87V531.76h3.824v11.507a1.87,1.87,0,0,1-1.87,1.87" transform="translate(-836.157 -458.321)" fill="#abc8f7"/>
                                <path id="Path_83" data-name="Path 83" d="M952.2,558.955h-.063a1.389,1.389,0,0,1-1.389-1.389v-5.216h2.842v5.216a1.389,1.389,0,0,1-1.389,1.389" transform="translate(-837.287 -472.67)" fill="#abc8f7"/>
                                <path id="Path_84" data-name="Path 84" d="M915.195,545.136h-.085a1.87,1.87,0,0,1-1.87-1.87V531.76h3.824v11.507a1.87,1.87,0,0,1-1.87,1.87" transform="translate(-811.15 -458.321)" fill="#abc8f7"/>
                                <path id="Path_85" data-name="Path 85" d="M916.314,558.955h-.063a1.389,1.389,0,0,1-1.389-1.389v-5.216H917.7v5.216a1.389,1.389,0,0,1-1.389,1.389" transform="translate(-812.28 -472.67)" fill="#abc8f7"/>
                                <rect id="Rectangle_54" data-name="Rectangle 54" width="1.075" height="3.054" transform="translate(102.38 84.593)" fill="#abc8f7"/>
                                <rect id="Rectangle_55" data-name="Rectangle 55" width="1.075" height="3.054" transform="translate(120.771 84.593)" fill="#abc8f7"/>
                                <rect id="Rectangle_56" data-name="Rectangle 56" width="19.467" height="0.892" transform="translate(102.38 84.594)" fill="#abc8f7"/>
                                <rect id="Rectangle_57" data-name="Rectangle 57" width="20.827" height="15.188" transform="translate(74.813 114.512)" fill="#abc8f7"/>
                                <rect id="Rectangle_58" data-name="Rectangle 58" width="17.579" height="21.994" transform="translate(100.176 107.707)" fill="#abc8f7"/>
                                <rect id="Rectangle_59" data-name="Rectangle 59" width="10.175" height="6.472" transform="translate(41.239 39.393)" fill="#fff"/>
                                <rect id="Rectangle_60" data-name="Rectangle 60" width="10.175" height="6.472" transform="translate(91.285 39.393)" fill="#fff"/>
                                <rect id="Rectangle_61" data-name="Rectangle 61" width="10.175" height="6.472" transform="translate(60.425 87.293)" fill="#fff"/>
                                <rect id="Rectangle_62" data-name="Rectangle 62" width="10.175" height="6.472" transform="translate(114.715 129.921)" fill="#fff"/>
                            </g>
                        </g>
                    </g>
                    <path id="Path_86" data-name="Path 86" d="M1832.029,454.954c.019-.5.409-5.934,8.679-6.217,0,0-4.067.485-4.77,2.273,0,0,2.769-2.209,5.024-1.5s3.58,4.662,3.593,5.961-1.24,5.489-2.671,5.845a4.369,4.369,0,0,1-1.734,0,19.537,19.537,0,0,1,1.111,1.983c3.3,6.774-.1,13.4-2.9,12.664-1.792-.469-2.3,2.588-2.3,2.588l-17.408-14.094s6.394-13.231,13.371-9.507" transform="translate(-1267.436 -312.729)" fill="#2c3a64"/>
                    <path id="Path_87" data-name="Path 87" d="M1702.564,732.4c1.455,1.287,5.317-3.134,5.848-3.722a.369.369,0,0,1,.056-.084l-1.175-3.274s-5.065-.2-5.9.643-.42,5.065,1.176,6.436" transform="translate(-1185.415 -505.466)" fill="#ffb27d"/>
                    <path id="Path_88" data-name="Path 88" d="M1721.844,637.312l.5,3.386s.225,0,.615-.03c1.232-.084,4.226-.252,7.612-.615a75.434,75.434,0,0,0,9.67-1.481,14.313,14.313,0,0,0,3.875-1.4c3.665-2.239,9.682-9.095,13.6-15.951a4.3,4.3,0,0,0,.281-.5,33.331,33.331,0,0,0,3-6.824,13.921,13.921,0,0,0,.583-3.3A14.437,14.437,0,0,0,1761.1,606a11.67,11.67,0,0,0-2.071-4.141,2.01,2.01,0,0,0-.39-.474,9.662,9.662,0,0,0-2.661-2.268,1.626,1.626,0,0,0-1.7.434c-.067.052-.13.111-.2.17,0,0-.005.007-.01.01-.084.079-.167.163-.251.254v.027a8.454,8.454,0,0,0-.667.8.012.012,0,0,0,0,.007,15.559,15.559,0,0,0-1.259,2.046c-.027.027-.056.054-.056.084-.138.252-.279.531-.447.839a.625.625,0,0,0-.111.2q-.463.966-.926,2.014c-3.44,7.5-7.105,18.861-10.156,22.247a23.219,23.219,0,0,1-5.318,3.251v0l-.146.072-.015.007c-2.1,1.054-4.494,2.152-6.639,3.1-3.441,1.511-6.24,2.631-6.24,2.631" transform="translate(-1199.966 -417.461)" fill="#ffb27d"/>
                    <path id="Path_89" data-name="Path 89" d="M1764.456,632.762a25.023,25.023,0,0,0,2.086,3.912,10.641,10.641,0,0,0,3.727,3.67c1.15-.555,3.223-1.372,4.1-1.913,3.179-1.942,7.712-7.448,11.415-13.352.565-.9,1.111-1.809,1.629-2.718a4.28,4.28,0,0,0,.281-.5,33.334,33.334,0,0,0,3-6.824l-6.71-14.344-.017-.035c-.025.025-.087.1-.18.2,0,0,0,.008-.01.01-.187.22-.506.595-.918,1.083,0,0,0,.005,0,.007a15.523,15.523,0,0,0-1.259,2.046c-.027.027-.057.054-.057.084-.139.252-.279.531-.447.839a.612.612,0,0,0-.111.195q-.463.966-.926,2.014c-3.44,7.5-7.105,18.861-10.156,22.247a23.233,23.233,0,0,1-5.319,3.251v0c-.054.082-.1.123-.123.123" transform="translate(-1229.662 -418.602)" fill="#afcdfb"/>
                    <path id="Path_90" data-name="Path 90" d="M1771.337,692.284a10.638,10.638,0,0,0,3.727,3.67c1.15-.555,3.223-1.372,4.1-1.912,3.179-1.942,7.713-7.449,11.415-13.352-.138-1.856-9.853,7.676-11.087,9.4-.93,1.3-5.738,1.949-8.157,2.191" transform="translate(-1234.458 -474.212)" fill="#95b3ef"/>
                    <path id="Path_91" data-name="Path 91" d="M1706.127,473.188c.021.4.034.611.034.611s.065-.2.193-.594c1.046-3.224,6.155-19.138,10.8-36.857,6.431-24.516,11.982-52.484,4.678-55.07-13.836-4.9-16.387,34.268-16.425,63.172-.024,14.239.566,25.983.715,28.738" transform="translate(-1188.514 -265.425)" fill="#a8d29f"/>
                    <path id="Path_92" data-name="Path 92" d="M1590.527,349.769c5,11.091,9.338,20.422,11.827,26.011,1.084,2.437,1.816,4.16,2.1,5.009-.242-1.381-.894-5.085-1.826-10.356v-.007c-1.4-7.9-3.428-19.307-5.655-31.7-5.406-30.112-11.985-65.988-13.521-71.118-2.71-9.048-15.2-28.31-23.6-11.55-5.461,10.891,15.613,60.279,30.681,93.708" transform="translate(-1086.453 -173.837)" fill="#a8d29f"/>
                    <path id="Path_93" data-name="Path 93" d="M1569.7,506.472c5.168,5.454,9.51,9.876,11.937,12.32,1.326,1.339,2.078,2.085,2.078,2.085s-1.322-2.82-3.576-7.326c-2.13-4.256-5.088-10.014-8.547-16.314-11.333-20.65-28.016-47.116-38.362-45.587-11.806,1.743,17.74,35.051,36.47,54.821" transform="translate(-1066.634 -314.716)" fill="#a8d29f"/>
                    <path id="Path_94" data-name="Path 94" d="M1706.127,600.774c.072,0,.148.01.228.017,1.046-3.224,6.155-19.138,10.8-36.857-2.168,3.248-6.089,7.6-11.747,8.1-.024,14.239.566,25.983.715,28.738" transform="translate(-1188.514 -393.011)" fill="#82b378"/>
                    <path id="Path_95" data-name="Path 95" d="M1663.1,555.077c5,11.091,9.338,20.422,11.827,26.011a45.294,45.294,0,0,0,.272-5.347v-.007c-1.4-7.9-3.428-19.307-5.654-31.7-.87,4.325-2.682,9.117-6.445,11.04" transform="translate(-1159.028 -379.145)" fill="#82b378"/>
                    <path id="Path_96" data-name="Path 96" d="M1659.777,611.436c5.168,5.454,9.51,9.876,11.937,12.32a33.032,33.032,0,0,0-1.5-5.24c-2.13-4.256-5.088-10.014-8.547-16.314-.079,2.641-.455,6.576-1.892,9.234" transform="translate(-1156.711 -419.68)" fill="#82b378"/>
                    <path id="Path_97" data-name="Path 97" d="M1709.059,682.827c.069.386.1.59.1.59.052-.028.017-.228-.1-.59" transform="translate(-1191.056 -475.868)" fill="#a8d29f"/>
                    <path id="Path_98" data-name="Path 98" d="M1659.669,697.45c6.888,19.515,26.688,61.319,34.528,77.663a7.208,7.208,0,0,0,13.623-4.207c-2.092-13.678-7.95-51.441-11.349-67.857-4.888-23.6-7.678-47.409-17.705-53.6a18.93,18.93,0,0,0-8.654-2.71,21.153,21.153,0,0,0-4.363.127c-.342.045-.677.1-1.015.156a22.993,22.993,0,0,0-2.489.59q-.477.135-.942.3a23.714,23.714,0,0,0-3.117,1.312c-4.222,2.147-7.622,5.377-8.954,8.868-4.005,10.495,3.887,20.805,10.438,39.36" transform="translate(-1148.604 -450.676)" fill="#ed7d2b"/>
                    <path id="Path_99" data-name="Path 99" d="M1842.777,863.533l3.7,1.377s16.061-22.276,18.038-41.874a29.774,29.774,0,0,0-.528-10.02s.157-.9.432-2.481c.126-.74.284-1.63.462-2.651.523-2.992,1.241-7.085,2.062-11.746,1.889-10.726,4.338-24.438,6.24-34.518l-1-.32-10.781-3.478-2.228-7.076-8.027-2.113s-1.793,3.508-3.4,20.079c-.3,2.174-.564,4.571-.767,7.17a141.873,141.873,0,0,0,.763,29.027q.553,4.32,1.41,8.909a39.757,39.757,0,0,1,.308,8.8c-.809,16.021-6.69,40.92-6.69,40.92" transform="translate(-1284.245 -521.728)" fill="#b5453c"/>
                    <path id="Path_100" data-name="Path 100" d="M1856.662,775.882l17.431,34.654c.127-.74.284-1.63.462-2.651.523-2.992,1.241-7.085,2.063-11.747,1.889-10.726,4.338-24.438,6.24-34.518l-1-.32-10.781-3.478-2.228-7.076-8.027-2.113s-1.793,3.508-3.4,20.079c-.3,2.174-.564,4.571-.766,7.17" transform="translate(-1293.922 -521.729)" fill="#93312c"/>
                    <path id="Path_101" data-name="Path 101" d="M1881.962,743.812l.4-3.46c6.76,1.8,24.823-5.018,24.823-5.018s6.549,5.757,5.689,19.557c-.42,6.735-1.186,35.357-1.987,43.827-.289,3.069-.543,5.254-.646,6.126a.017.017,0,0,0,0,.009,1.21,1.21,0,0,0,.2.75,39.792,39.792,0,0,1,2.955,6.216c7.859,20.943-1.211,46.733-1.211,46.733l-2.354-.948s-5.161-28.7-9.354-41.383a25.144,25.144,0,0,0-2.02-4.851c-1.823-2.943-3.515-7.751-5.051-13.47-2.9-10.812-5.239-24.878-6.794-35.735-.214.01-4.649-18.353-4.649-18.353" transform="translate(-1311.553 -512.461)" fill="#b5453c"/>
                    <path id="Path_102" data-name="Path 102" d="M1851.287,568.793c11.623.637,9.069-16.689,8.359-16.6-1.422-.743-3.976-4.35-5.452-10.385l-.5.232-8.386,3.943s.89,2.729,1.549,5.341c.513,2.044.881,4.018.573,4.571-.661.269-1.057.438-1.057.438a.022.022,0,0,1,0,.009c-.084.215,1.817,12.284,4.918,12.453" transform="translate(-1286.008 -377.59)" fill="#ffb27d"/>
                    <path id="Path_103" data-name="Path 103" d="M1845.307,546.523s.891,2.726,1.548,5.341c4.9-1.368,6.391-6.521,6.839-9.283Z" transform="translate(-1286.008 -378.129)" fill="#ed985f"/>
                    <path id="Path_104" data-name="Path 104" d="M1824.754,516.068s11.728-2.715,9.925-9.992-1.5-12.529-9.067-11.1-8.326,4.561-8.315,7.137,4.36,14.478,7.457,13.959" transform="translate(-1266.487 -344.788)" fill="#ffb27d"/>
                    <path id="Path_105" data-name="Path 105" d="M1813.922,494.927c1.261-2.638,2.745-2.5,3.673-2.029a8.413,8.413,0,0,1,10.916-.933,14.322,14.322,0,0,0,6.589,7.079s-1.8,1.845-7.024,1.8a8.594,8.594,0,0,1-4.658-1.754,28.074,28.074,0,0,0,6.115,4.561c-6.537-1.251-10.92-8.819-11.369-9.623a9.434,9.434,0,0,0-1.7,4.029c-.122,2,.566,5.877-.578,6.024,0,0-3.853-5.2-1.963-9.158" transform="translate(-1263.771 -341.738)" fill="#2c3a64"/>
                    <path id="Path_106" data-name="Path 106" d="M1936.53,1124.074h18.624a10.223,10.223,0,0,0-.526-4.992c-.932-2.066-2.392-3.005-2.043-5.506a6.706,6.706,0,0,1-5.8,2.221c-.33.535-2.13,3.4-3.231,4.189-1.217.874-6.644.563-7.019,4.088" transform="translate(-1349.582 -776.061)" fill="#233862"/>
                    <path id="Path_107" data-name="Path 107" d="M1804.6,1125.994h18.624s.7-2.97-.526-4.992c-1.082-1.788-.667-2.807.134-4.287a7.234,7.234,0,0,1-3.137.59,6.56,6.56,0,0,1-2.77-.974,66.975,66.975,0,0,1-5.306,5.574c-1.217.874-6.644.563-7.019,4.088" transform="translate(-1257.637 -777.981)" fill="#233862"/>
                    <path id="Path_108" data-name="Path 108" d="M1828.826,582.866l3.053,41.012,1.868,25.112c2.873.893,5.608,1.592,8.2,2.127a30.624,30.624,0,0,1,.851-4.623c-.03,1.32,1.515,3.848,2.431,5.223,23.849,3.82,35.029-6.582,35.029-6.582-.928-9.208-4.946-27.835-9.756-43.45-1-3.248-2.036-6.365-3.085-9.24a126.378,126.378,0,0,0-5.185-12.6c-2.446-5.03-13.379-4.714-13.379-4.714a26.755,26.755,0,0,1-7.893,12.321c-3.085-1.812-5.383-8.182-5.383-8.182Z" transform="translate(-1274.522 -400.814)" fill="#afcdfb"/>
                    <path id="Path_109" data-name="Path 109" d="M1760.551,737.161a18.077,18.077,0,0,0,5.379-.652s-4.491-.064-3.537-1.483c.174-.258,2.406-.063,4.9-.063a8.689,8.689,0,0,1,3.418,1.465c1.806-.238,3.448-.589,3.979-.7a.855.855,0,0,0,.2-.056l1.595,4.645s-.336.084-.923.2a62.524,62.524,0,0,0-7.416,2.267,7.419,7.419,0,0,1-8.34-1.791,4.655,4.655,0,0,1-1.478-2.926c.051-.938,1.288-.9,2.228-.9" transform="translate(-1225.386 -512.153)" fill="#ffb27d"/>
                    <path id="Path_110" data-name="Path 110" d="M1874.348,570.516s1.984.133,2.409,1.4c0,0-2.589,10.422-7.891,12.32Z" transform="translate(-1302.427 -397.598)" fill="#95b3ef"/>
                    <path id="Path_111" data-name="Path 111" d="M1853.115,594.024s-4.947-8.23-4.928-9.466c0,0-2.044.8-1.917,2.063,0,0,4.267,6.833,6.845,7.4" transform="translate(-1286.675 -407.384)" fill="#95b3ef"/>
                    <path id="Path_112" data-name="Path 112" d="M1871.364,603.554c-.143.494-18,29-18.387,34.676s7.508,2.468,7.632,1.728,10.755-36.4,10.755-36.4" transform="translate(-1291.344 -420.622)" fill="#95b3ef"/>
                    <path id="Path_113" data-name="Path 113" d="M1838.9,652.863l1.868,25.113c25.542-7.357,26.946-61.255,26.946-61.255l-15.786,28.5-12.891,7.451s-.049.067-.138.193" transform="translate(-1281.542 -429.799)" fill="#95b3ef"/>
                    <path id="Path_114" data-name="Path 114" d="M1801.425,629.56l.98,3.581s1.232-.225,3.191-.587c.587-.114.923-.2.923-.2,1.567-.306,3.44-.726,5.484-1.174h.03c3.5-.84,7.414-1.846,10.716-2.967.3-.1.588-.208.871-.311a26.862,26.862,0,0,0,4.838-2.236,3.489,3.489,0,0,0,.392-.279c3.273-2.379,7.162-9.374,10.186-16.874.42-1.034.812-2.071,1.2-3.078a76.415,76.415,0,0,0,3.191-10.635,30.106,30.106,0,0,0,.755-5.064,12.211,12.211,0,0,0,.027-1.426c-.054-8.115-5.792-8.954-6.548-8.031a25.5,25.5,0,0,0-2.994,5.289c-1.594,3.608-3.272,8.283-4.84,12.928-.868,2.547-1.708,5.094-2.547,7.443-.476,1.427-.953,2.769-1.4,4a38.7,38.7,0,0,1-2.349,5.457,13.559,13.559,0,0,1-3.443,3.107c-.452.328-.938.667-1.447,1.014-2.831,1.923-6.434,4.065-9.635,5.869-1.567.9-3.05,1.708-4.282,2.38-1.987,1.091-3.3,1.792-3.3,1.792" transform="translate(-1255.426 -404.195)" fill="#ffb27d"/>
                    <path id="Path_115" data-name="Path 115" d="M1858.235,619.52a11.539,11.539,0,0,0,6.129,10.058c7.322-2.643,11.239-13.562,14.262-21.063.42-1.034.812-2.071,1.2-3.078a76.47,76.47,0,0,0,3.191-10.635,30.192,30.192,0,0,0,.755-5.064,12.264,12.264,0,0,0,.027-1.426c-.054-8.115-5.793-8.954-6.548-8.031a25.5,25.5,0,0,0-2.994,5.289c-1.594,3.608-3.273,8.283-4.84,12.928-.869,2.547-1.708,5.094-2.547,7.443-.476,1.427-.953,2.769-1.4,4a38.693,38.693,0,0,1-2.35,5.457,13.563,13.563,0,0,1-3.443,3.107c-.452.328-.938.667-1.447,1.014" transform="translate(-1295.017 -404.195)" fill="#afcdfb"/>
                    <path id="Path_116" data-name="Path 116" d="M1764.319,706.347q.011.045.037.045c-.01-.022-.017-.039-.022-.052-.022-.044-.027-.044-.015.007" transform="translate(-1229.562 -492.232)" fill="#abddda"/>
                    <path id="Path_117" data-name="Path 117" d="M1245.182,730.173a74.62,74.62,0,0,0,16.738,1.834c22.27-.021,48.138-9.264,70.744-32,0,0,.567-18.585-6.255-34.789h-.008c-4.733-11.238-14.094-25.427-28.355-28.742a31.128,31.128,0,0,0-22.532,2.935c-10.334,5.426-17.23,14.691-24.275,14.657a49.558,49.558,0,0,0-22.089,5.537c-1.176.6-2.332,1.239-3.455,1.939l0,0c-.47.285-.929.573-1.387.879a.078.078,0,0,0-.029.02c-10.062,6.678-17.481,17.186-16.326,30.893a37.785,37.785,0,0,0,2.4,10.228c4.89,12.987,17.912,22.73,34.831,26.6" transform="translate(-841.745 -442.933)" fill="#ed7d2b"/>
                    <path id="Path_118" data-name="Path 118" d="M1470.49,657.667s13.364-1.52,17.51,7.3-4.786,11.669-11.118,8.976-13.51-13.585-6.392-16.273" transform="translate(-1022.735 -458.265)" fill="#ffb583"/>
                    <path id="Path_119" data-name="Path 119" d="M1208.219,761.527c.266,3.178,1.365,6.481,2.4,10.232,7.34,26.5,22.859,40.443,35.629,46.747,14.115,6.969,43.435,7.262,56.177,2.6,20.917-7.646,31.244-27.372,30.5-52.915,0,0,.567-18.584-6.254-34.788h-.007s-17.206,39.022-66.8,41.943c-22.526,1.324-39.659-5.728-51.656-13.823" transform="translate(-842.017 -511.119)" fill="#ea6c2d"/>
                    <path id="Path_120" data-name="Path 120" d="M1311.479,585.964c1.92-7.373,10.482-8.127,18.065-11.388s18.079-13.7,18.079-13.7a107.373,107.373,0,0,0-23.7-1.149c-13.214.812-12.445,26.234-12.445,26.234" transform="translate(-913.973 -389.944)" fill="#a8d29f"/>
                    <path id="Path_121" data-name="Path 121" d="M1311.479,585.964c.831-7.915,6.9-17.968,12.443-20.251s23.7-4.834,23.7-4.834a107.373,107.373,0,0,0-23.7-1.149c-13.214.812-12.445,26.234-12.445,26.234" transform="translate(-913.973 -389.944)" fill="#82b378"/>
                    <path id="Path_122" data-name="Path 122" d="M1300.262,662.919a49.556,49.556,0,0,0-22.089,5.537c12.75-5.694,29.522,1.035,31.7-3.816,2.337-5.208,14.2-15.97,14.659-16.378-10.334,5.426-17.23,14.691-24.275,14.657" transform="translate(-890.768 -451.78)" fill="#ea6c2d"/>
                    <path id="Path_123" data-name="Path 123" d="M1262.182,722.178c.375-.207.833-.5,1.387-.879-.471.285-.929.573-1.387.879" transform="translate(-879.624 -502.68)" fill="#95c38b"/>
                    <path id="Path_124" data-name="Path 124" d="M1284.866,639.471h0c-3.522-9.54-13.208-16.127-20.712-19.974a182.352,182.352,0,0,0-19.166-7.878,1.067,1.067,0,0,0-1.311,1.483l1.128,2.278a8.713,8.713,0,0,0,5.666,4.586c7.59,1.922,24.384,7.351,30.829,19.1.725,1.322,4.2,2.105,3.565.4" transform="translate(-866.648 -426.199)" fill="#82b378"/>
                    <path id="Path_125" data-name="Path 125" d="M936.523,762.434c37.818-3.3,75.567-15.656,112.431-36.791a23.594,23.594,0,0,0,11.272-25.45c-2.789-6.4-19.884-14.055-37.876-14.906a60.923,60.923,0,0,0-14.769,1.01c-37.543,7.519-84.768,11.876-113.112,4.3-28.985-7.746-64.743-19.6-96.107-43.525a.021.021,0,0,1-.012-.008c-3.052-2.3-85.972-51.548-85.972-51.548-10.6-3.894-15.415,8.172-15.415,8.172s8.887,4.243,29.75,19.871,22.5,58.087,22.5,58.1a37.824,37.824,0,0,0,15.835,31.533,279.6,279.6,0,0,0,69.453,36.1,243.419,243.419,0,0,0,102.021,13.141" transform="translate(-485.719 -414.48)" fill="#ffb93e"/>
                    <path id="Path_126" data-name="Path 126" d="M1172.322,797.62c-37.543,7.519-84.768,11.876-113.112,4.3-28.985-7.746-64.743-19.6-96.107-43.525a.021.021,0,0,1-.011-.008c-.636-.379-25.556-14.977-29.658,14.819C929.419,802.366,1074,852.3,1187.09,796.61a60.917,60.917,0,0,0-14.769,1.01" transform="translate(-650.459 -525.803)" fill="#ffa412"/>
                    <path id="Path_127" data-name="Path 127" d="M1160.425,606.055s.734-1.651,1.209-2.432,2.506-3.071,2.851-2.553,1.728,4.008.994,4.985.048,2.677-3.605,3.707Z" transform="translate(-808.709 -418.838)" fill="#ffb27d"/>
                    <path id="Path_128" data-name="Path 128" d="M1026.49,583.3s18.7,15.609,25.991,14.164a143.743,143.743,0,0,0,14.452-4.13l1.75,4.476s-7.847,10.645-16.029,10.715a46.608,46.608,0,0,1-22.237-5.537Z" transform="translate(-715.368 -406.511)" fill="#95b3ef"/>
                    <path id="Path_129" data-name="Path 129" d="M918.288,1120.041s.543,8.757,2.237,8.883c.226.016,8.593.016,8.593.016l10.681-.062a3.466,3.466,0,0,0-3.192-3.118c-3.122-.544-8.348-2.738-10.239-6.865-1.99-4.341-8.079,1.145-8.079,1.145" transform="translate(-639.962 -778.603)" fill="#163560"/>
                    <path id="Path_130" data-name="Path 130" d="M916.257,879.947a22.27,22.27,0,0,0,5.782,1.086,21.236,21.236,0,0,0,5.4-.77s.611-5.912,3.975-18.937c1.764-6.828,4.282-15.606,7.866-26.514,9.907-30.147,12.92-47.783,13.2-49.453.015-.088.02-.132.02-.132l-.032-.015L922,771.838s3.764,41.549-1.038,57.5a67.208,67.208,0,0,0-1.744,7.641c-3.033,17.323-2.963,42.971-2.963,42.971" transform="translate(-638.546 -537.901)" fill="#f99746"/>
                    <path id="Path_131" data-name="Path 131" d="M942.167,861.326c1.764-6.827,4.282-15.606,7.866-26.514,9.908-30.147,12.921-47.783,13.2-49.453,0-.05-.006-.1-.012-.146l-30.46-13.374s3.765,41.549-1.038,57.5c-.673,2.229,10.449,31.99,10.449,31.99" transform="translate(-649.301 -537.901)" fill="#ed7d2b"/>
                    <path id="Path_132" data-name="Path 132" d="M996.782,1120.041s.543,8.757,2.237,8.883c.225.016,8.593.016,8.593.016l10.681-.062a3.466,3.466,0,0,0-3.192-3.118c-3.122-.544-8.348-2.738-10.239-6.865-1.99-4.341-8.08,1.145-8.08,1.145" transform="translate(-694.665 -778.603)" fill="#163560"/>
                    <path id="Path_133" data-name="Path 133" d="M979.295,775.068a433.642,433.642,0,0,1-4.263,59.983c-4.658,33.059-3.079,47.091-3.079,47.091a31.72,31.72,0,0,1-4.493,1.142,20.379,20.379,0,0,1-6.665-.771s-6.668-33.07-4.756-49.617-9.13-56.778-9.13-56.778Z" transform="translate(-659.908 -540.152)" fill="#f99746"/>
                    <path id="Path_134" data-name="Path 134" d="M982.5,536.583l5.945,3.9,8.591-1.6c-.119-.694-.686-3.568-1.2-6.172-.031-.154-.062-.307-.091-.457-.442-2.215-.824-4.118-.824-4.118l-8.024-3.541-2.992-1.32c.008.046.232,2.458.263,2.811a20.458,20.458,0,0,1-1.665,10.5" transform="translate(-684.711 -364.673)" fill="#ffb27d"/>
                    <path id="Path_135" data-name="Path 135" d="M959.185,626.165c-.122,14.211-1.069,47.457-1.767,48.133-7.4,7.145-39.96-1.959-41.686-9.83s6.56-100.93,19.2-104.646c2.623-.77,16.649,3.764,16.649,3.764a88.925,88.925,0,0,1,3.642,13.086c.535,2.717,2.28,22.1,3.3,35.052.269,3.453.489,6.447.619,8.548.053.868.065,2.983.041,5.894" transform="translate(-638.023 -390.084)" fill="#afcdfb"/>
                    <path id="Path_136" data-name="Path 136" d="M989.451,529.226c1.762,2.985,8.328,5.566,11.067,6.515-.031-.154-.062-.307-.092-.457-.442-2.215-.824-4.118-.824-4.118l-8.024-3.541c-1.774-.024-2.853.373-2.127,1.6" transform="translate(-689.396 -367.706)" fill="#fca56b"/>
                    <path id="Path_137" data-name="Path 137" d="M992,488.784s-12.925,4.032-15.312-4.056-5.663-13.014,2.489-15.931,10.673-.306,12.126,2.2,4,16.529.7,17.786" transform="translate(-678.77 -325.813)" fill="#ffb27d"/>
                    <path id="Path_138" data-name="Path 138" d="M977.988,460.064s-.824,9.412-2.771,9-3.711-.712-3.426,2.126,2.984,6.113-3.015,6.615-14.621-14.968-12.974-17.9c4.755-8.451,29.058-10.157,22.186.153" transform="translate(-665.963 -315.659)" fill="#163560"/>
                    <path id="Path_139" data-name="Path 139" d="M992.82,551.575c-.167-.07-9.622-4.312-10.728-3.947s-2.484,3.742-2.484,3.742l16.649,3.764a8.27,8.27,0,0,0-3.437-3.56" transform="translate(-682.696 -381.632)" fill="#95b3ef"/>
                    <path id="Path_140" data-name="Path 140" d="M1097.116,695.726l-49.883,53.021a2.6,2.6,0,0,1-3.667.112l-3.307-3.111a2.6,2.6,0,0,1-.112-3.667l49.884-53.021a2.6,2.6,0,0,1,3.667-.112l3.307,3.111a2.6,2.6,0,0,1,.112,3.667" transform="translate(-724.397 -479.645)" fill="#1f4d84"/>
                    <path id="Path_141" data-name="Path 141" d="M1069.122,795.766l-21.89,23.267a2.6,2.6,0,0,1-3.667.112l-3.307-3.111a2.6,2.6,0,0,1-.112-3.667l21.89-23.267Z" transform="translate(-724.397 -549.931)" fill="#163560"/>
                    <path id="Path_142" data-name="Path 142" d="M1241.935,484.522c-.212-.213-.431-.421-.651-.63a41.677,41.677,0,1,0,.651.63m-3.064,54.135a35.785,35.785,0,1,1-1.542-50.561,35.609,35.609,0,0,1,1.542,50.561" transform="translate(-816.272 -329.364)" fill="#163560"/>
                    <g id="Group_6" data-name="Group 6" transform="translate(360.777 149.017)" opacity="0.5">
                        <g id="Group_5" data-name="Group 5">
                            <g id="Group_4" data-name="Group 4" clip-path="url(#clip-path-4)">
                                <path id="Path_143" data-name="Path 143" d="M1252.144,551.935a35.771,35.771,0,1,1-1.542-50.56,35.624,35.624,0,0,1,1.542,50.56" transform="translate(-1190.323 -491.659)" fill="#b3cff9"/>
                                <path id="Path_144" data-name="Path 144" d="M1285.266,553.145a35.623,35.623,0,0,1-17.781,10.3,35.774,35.774,0,0,1-2.139-70.046,35.771,35.771,0,0,1,19.92,59.75" transform="translate(-1223.445 -492.869)" fill="#d2e4ff"/>
                            </g>
                        </g>
                    </g>
                    <path id="Path_145" data-name="Path 145" d="M994.263,664.656c-30.891-20.92-28.374-49.692-28.374-49.692,12.053,6.8,24,22.9,27.715,35.251.269,3.453.489,6.447.619,8.547.053.868.064,2.983.041,5.894" transform="translate(-673.101 -428.574)" fill="#95b3ef"/>
                    <path id="Path_146" data-name="Path 146" d="M1141.406,738.68a7.971,7.971,0,0,0,3.73-2.3s.878.06-.144,1.933c-.085.157-.276.56-.418.844a.182.182,0,0,0,.153.261c1.188.091,2.383-.38,4.673.1.316.066.408.823.4,1.145a2.921,2.921,0,0,1-.615,1.995c-.369.487-1.4,1.01-3.69,1.933-.874.351-3.37.086-5.71-.718l-1.87-.866.58-3.475.47.1c.746.157,1.67-.754,2.448-.945" transform="translate(-793.017 -513.187)" fill="#ffb27d"/>
                    <path id="Path_147" data-name="Path 147" d="M973.665,572.446s-26.241,5,7.72,43c5.432,6.078,34.777,13.991,34.777,13.991s2.976-2.533,1.476-4.583c0,0-20.2-14.672-24.651-17.005-2-1.049-7.762-23.418-11.022-28.806a14.7,14.7,0,0,0-8.3-6.594" transform="translate(-671.814 -398.943)" fill="#afcdfb"/>
                    <path id="Path_148" data-name="Path 148" d="M1162.772,604.506A13.353,13.353,0,0,0,1163.8,602a13.849,13.849,0,0,1,1.694-3.833c.178-.178.766.052.835.817a4.455,4.455,0,0,1-.422,1.66,18.716,18.716,0,0,0-.556,3.3c-.406,1.322-2.578.564-2.578.564" transform="translate(-810.344 -416.829)" fill="#ffb27d"/>
                    <path id="Path_149" data-name="Path 149" d="M2754.076,1092.826h-21.7c-1.163-.987.8-3.227,2.861-3.377a12.7,12.7,0,0,1,3.313.392c.3-3.966,2-21.8,8.431-21.081,7.228.8,0,7.852-2.043,12.026a99.209,99.209,0,0,0-3.839,9.618c.586.127,1.194.252,1.814.366.958-2.941,4.522-12.834,9.055-12.258,5.322.675,3.183,4.642-.589,7-2.767,1.731-6.165,4.192-7.78,5.381a23.027,23.027,0,0,0,4.244.34c3.717-.088,5.532,1.007,6.235,1.6" transform="translate(-1903.97 -744.813)" fill="#82b378"/>
                    <path id="Path_150" data-name="Path 150" d="M798.9,1088.185s-10.333-28.378-17.588-25.959,17.588,25.959,17.588,25.959" transform="translate(-543.575 -740.172)" fill="#82b378"/>
                    <path id="Path_151" data-name="Path 151" d="M786.768,1117.447c-.879,0-17.368-17.112-18.468-12.632s18.468,12.632,18.468,12.632" transform="translate(-535.403 -769.434)" fill="#82b378"/>
                    <path id="Path_152" data-name="Path 152" d="M792.191,1136.954s-6.82-6.253-15.453-4.625-12.322,3.411-17.745,2.177a8.029,8.029,0,0,0-8.194,2.448Z" transform="translate(-523.237 -788.941)" fill="#82b378"/>
                    <path id="Path_153" data-name="Path 153" d="M1289.411,203.457l-39.017-.029a3.266,3.266,0,0,1-3.254-3.259l.028-37.659a3.266,3.266,0,0,1,3.259-3.254l39.017.029a3.266,3.266,0,0,1,3.254,3.259l-.028,37.659a3.267,3.267,0,0,1-3.259,3.254" transform="translate(-869.14 -110.988)" fill="#c0d8fb"/>
                    <path id="Path_154" data-name="Path 154" d="M1292.26,205.945l-35.637-.026a2.983,2.983,0,0,1-2.972-2.976l.025-34.4a2.983,2.983,0,0,1,2.977-2.972l35.637.026a2.983,2.983,0,0,1,2.972,2.977l-.025,34.4a2.983,2.983,0,0,1-2.977,2.972" transform="translate(-873.679 -115.391)" fill="#dfebfd"/>
                    <path id="Path_155" data-name="Path 155" d="M1319.223,176.748a.943.943,0,1,1,.943.944.943.943,0,0,1-.943-.944" transform="translate(-919.376 -122.522)" fill="#b7d3f3"/>
                    <path id="Path_156" data-name="Path 156" d="M1344.054,182.218a.943.943,0,1,1,.365,1.283.943.943,0,0,1-.365-1.283" transform="translate(-936.598 -126.653)" fill="#b7d3f3"/>
                    <path id="Path_157" data-name="Path 157" d="M1364.833,200.092a.943.943,0,1,1-.283,1.3.943.943,0,0,1,.283-1.3" transform="translate(-950.86 -139.342)" fill="#b7d3f3"/>
                    <path id="Path_158" data-name="Path 158" d="M1374.293,226.9a.943.943,0,1,1-.944.943.943.943,0,0,1,.944-.943" transform="translate(-957.097 -158.128)" fill="#b7d3f3"/>
                    <path id="Path_159" data-name="Path 159" d="M1367.3,256.956a.943.943,0,1,1-1.334,0,.943.943,0,0,1,1.334,0" transform="translate(-951.757 -178.883)" fill="#b7d3f3"/>
                    <path id="Path_160" data-name="Path 160" d="M1347.743,276.533a.943.943,0,1,1-1.334,0,.943.943,0,0,1,1.334,0" transform="translate(-938.13 -192.526)" fill="#b7d3f3"/>
                    <path id="Path_161" data-name="Path 161" d="M1319.144,285.077a.943.943,0,1,1,.942.944.942.942,0,0,1-.942-.944" transform="translate(-919.321 -198.017)" fill="#b7d3f3"/>
                    <path id="Path_162" data-name="Path 162" d="M1296.17,182.183a.943.943,0,1,0-.367,1.282.943.943,0,0,0,.367-1.282" transform="translate(-902.078 -126.628)" fill="#b7d3f3"/>
                    <path id="Path_163" data-name="Path 163" d="M1275.365,200.026a.943.943,0,1,0,.28,1.3.943.943,0,0,0-.28-1.3" transform="translate(-887.797 -139.296)" fill="#b7d3f3"/>
                    <path id="Path_164" data-name="Path 164" d="M1265.866,226.818a.943.943,0,1,0,.942.944.943.943,0,0,0-.942-.944" transform="translate(-881.534 -158.072)" fill="#b7d3f3"/>
                    <path id="Path_165" data-name="Path 165" d="M1272.818,256.886a.943.943,0,1,0,1.334,0,.943.943,0,0,0-1.334,0" transform="translate(-886.843 -178.835)" fill="#b7d3f3"/>
                    <path id="Path_166" data-name="Path 166" d="M1292.344,276.492a.943.943,0,1,0,1.334,0,.943.943,0,0,0-1.334,0" transform="translate(-900.451 -192.498)" fill="#b7d3f3"/>
                    <path id="Path_167" data-name="Path 167" d="M1321.458,227.8a.943.943,0,1,1,.942.944.943.943,0,0,1-.942-.944" transform="translate(-920.934 -158.102)" fill="#b7d3f3"/>
                    <rect id="Rectangle_65" data-name="Rectangle 65" width="11.782" height="0.258" transform="translate(401.336 69.701) rotate(-89.934)" fill="#b7d3f3"/>
                    <rect id="Rectangle_66" data-name="Rectangle 66" width="7.941" height="0.772" transform="matrix(0.787, -0.617, 0.617, 0.787, 401.11, 69.38)" fill="#b7d3f3"/>
                    <path id="Path_168" data-name="Path 168" d="M611.186,758.936h0a3.629,3.629,0,0,1-3.629-3.629V732.389h7.258v22.918a3.629,3.629,0,0,1-3.629,3.629" transform="translate(-423.411 -510.408)" fill="#cde3fd"/>
                    <path id="Path_169" data-name="Path 169" d="M613.33,791.563h0a2.7,2.7,0,0,1-2.7-2.7v-8.151h5.393v8.151a2.7,2.7,0,0,1-2.7,2.7" transform="translate(-425.555 -544.087)" fill="#f1a34f"/>
                    <path id="Path_170" data-name="Path 170" d="M646.935,758.936h0a3.629,3.629,0,0,1-3.629-3.629V732.389h7.258v22.918a3.629,3.629,0,0,1-3.629,3.629" transform="translate(-448.325 -510.408)" fill="#cde3fd"/>
                    <path id="Path_171" data-name="Path 171" d="M649.079,786.361h0a2.7,2.7,0,0,1-2.7-2.7V773.251h5.392v10.414a2.7,2.7,0,0,1-2.7,2.7" transform="translate(-450.469 -538.885)" fill="#abddda"/>
                    <path id="Path_172" data-name="Path 172" d="M578.84,758.936h0a3.629,3.629,0,0,1-3.629-3.629V732.389h7.258v22.918a3.629,3.629,0,0,1-3.629,3.629" transform="translate(-400.869 -510.408)" fill="#cde3fd"/>
                    <path id="Path_173" data-name="Path 173" d="M580.984,786.361h0a2.7,2.7,0,0,1-2.7-2.7V773.251h5.393v10.414a2.7,2.7,0,0,1-2.7,2.7" transform="translate(-403.013 -538.885)" fill="#ffb93e"/>
                    <rect id="Rectangle_67" data-name="Rectangle 67" width="2.041" height="6.06" transform="translate(169.819 244.706)" fill="#77a4e5"/>
                    <rect id="Rectangle_68" data-name="Rectangle 68" width="2.041" height="6.06" transform="translate(204.721 244.706)" fill="#77a4e5"/>
                    <rect id="Rectangle_69" data-name="Rectangle 69" width="36.942" height="1.77" transform="translate(169.819 244.706)" fill="#77a4e5"/>
                    <path id="Path_174" data-name="Path 174" d="M342.211,545.408s-4.432-2.723-9.141-.866-4.708,12.75-9.66,15.969-9.836,11.341-6.713,16.378,9.254,5.92,12.028,2.484,6.217-.6,5.6-5.455.812-23.657,4.852-22.741,3.035-5.768,3.035-5.768" transform="translate(-220.024 -379.045)" fill="#233862"/>
                    <path id="Path_175" data-name="Path 175" d="M400.342,557.057s-4.716-10.529-14.48-8.672-8.494,19.674-4.672,22.525,19.153-13.854,19.153-13.854" transform="translate(-263.674 -382.022)" fill="#233862"/>
                    <path id="Path_176" data-name="Path 176" d="M377.967,1010.674l.107,0a1.451,1.451,0,0,0,1.466-1.552l-5.828-58.209-5.086.454L377,1009.887a.947.947,0,0,0,.972.787" transform="translate(-256.898 -662.698)" fill="#77a4e5"/>
                    <path id="Path_177" data-name="Path 177" d="M210.646,1010.674l-.107,0a1.451,1.451,0,0,1-1.466-1.552l5.828-58.209,5.086.454-8.369,58.522a.947.947,0,0,1-.972.787" transform="translate(-145.7 -662.698)" fill="#77a4e5"/>
                    <path id="Path_178" data-name="Path 178" d="M195.776,775.433,185.43,724.342c-1.328-6.918,4.4-13.243,11.847-13.073l19.953.456A15.761,15.761,0,0,1,232.011,723.1l15.136,52.33Z" transform="translate(-129.094 -495.688)" fill="#77a4e5"/>
                    <path id="Path_179" data-name="Path 179" d="M216.427,775.433l-10.346-51.091c-1.328-6.918,4.4-13.243,11.847-13.073l19.953.456A15.761,15.761,0,0,1,252.662,723.1l15.136,52.33Z" transform="translate(-143.486 -495.688)" fill="#77a4e5"/>
                    <path id="Path_180" data-name="Path 180" d="M222.89,932.294h78.942a2.892,2.892,0,0,0,2.884-2.884V925.86a2.892,2.892,0,0,0-2.884-2.884H220.006v6.434a2.892,2.892,0,0,0,2.884,2.884" transform="translate(-153.324 -643.23)" fill="#77a4e5"/>
                    <path id="Path_181" data-name="Path 181" d="M346.4,932.294h50.324a2.33,2.33,0,0,0,2.323-2.323V925.3a2.33,2.33,0,0,0-2.323-2.323H346.4a2.33,2.33,0,0,0-2.323,2.323v4.672a2.33,2.33,0,0,0,2.323,2.323" transform="translate(-239.792 -643.23)" fill="#77a4e5"/>
                    <path id="Path_182" data-name="Path 182" d="M350.542,721.663l8.385,21.218s8.08,9.521,14.574,6.452l-20.548-39.9Z" transform="translate(-244.295 -494.41)" fill="#abddda"/>
                    <path id="Path_183" data-name="Path 183" d="M535.95,1096.138c-.242,2.344,3.019,2.95,6.8,3.179s2.63.992,7.806,1.986,7.269-.4,7.652-1.1c.341-.618-2.06-1.616-4.617-2.742-.322-.141-.644-.285-.967-.431-2.878-1.3-4.473-3.914-6.7-6.342-2.111-2.3-4.061-9.615-4.061-9.615l-7.031-1.581s1.908,6.584,2.565,9.394a8.678,8.678,0,0,1-.774,4.885,9.217,9.217,0,0,0-.674,2.364" transform="translate(-372.728 -752.309)" fill="#ffb27d"/>
                    <path id="Path_184" data-name="Path 184" d="M544.774,1132.662c3.782.229,3.145.48,8.32,1.475s7.269-.4,7.652-1.1c.341-.618-2.06-1.616-4.617-2.743l-.041.043a14.769,14.769,0,0,1-7.856.01c-3.42-.968-6.715-3.054-9.072-3.742a9.215,9.215,0,0,0-.673,2.364c-.242,2.345,2.505,3.462,6.287,3.691" transform="translate(-375.265 -785.142)" fill="#0f2549"/>
                    <path id="Path_185" data-name="Path 185" d="M347.459,817.323c-3.784-2.656-28.329-14.311-41.1-15.681l-14.6-5.336s-12.016,17.8-12.111,31.412c-.045,6.348,2.879,6.979,2.88,6.98s45.253.336,47.236.54c3.247.335,7.53,8.423,8.6,15.791s19.94,37.331,19.94,37.331,3.935,1.261,5.755,1.154a5.75,5.75,0,0,0,2.863-.771s-10.935-65.43-19.467-71.421" transform="translate(-194.89 -554.953)" fill="#ed7d2b"/>
                    <path id="Path_186" data-name="Path 186" d="M497.332,1096.138c-.242,2.344,3.019,2.95,6.8,3.179s2.63.992,7.806,1.986,7.269-.4,7.652-1.1c.341-.618-2.06-1.616-4.617-2.742-.322-.141-.644-.285-.966-.431-2.878-1.3-4.473-3.914-6.7-6.342-2.111-2.3-4.061-9.615-4.061-9.615l-7.031-1.581s1.909,6.584,2.565,9.394a8.681,8.681,0,0,1-.774,4.885,9.215,9.215,0,0,0-.674,2.364" transform="translate(-345.815 -752.309)" fill="#ffb27d"/>
                    <path id="Path_187" data-name="Path 187" d="M506.675,1132.151c3.782.229,2.63.991,7.806,1.986s7.48-.343,7.862-1.04c.341-.618-1.738-1.757-4.828-2.8l-.041.043a14.772,14.772,0,0,1-7.856.01c-3.42-.969-6.716-3.054-9.072-3.742a9.214,9.214,0,0,0-.674,2.364c-.242,2.344,3.02,2.95,6.8,3.179" transform="translate(-348.356 -785.142)" fill="#233862"/>
                    <path id="Path_188" data-name="Path 188" d="M323.9,814.164c-3.286-2.307-8.8-3.582-20.823-7.5-2.9-.943-31.039-14.892-31.039-14.892s-9.155,16.032-9.25,29.647q0,.3.011.588a10.185,10.185,0,0,0,10.158,9.581c10.057.1,31.732.335,33.252.491,3.247.335,7.53,8.423,8.6,15.791s19.94,37.331,19.94,37.331,3.935,1.261,5.755,1.154a5.751,5.751,0,0,0,2.863-.771s-10.935-65.43-19.467-71.421" transform="translate(-183.135 -551.794)" fill="#f99746"/>
                    <path id="Path_189" data-name="Path 189" d="M379.325,640.153c.035.036-5.026.539-7.834-1.583-2.643-1.993-3.74-7.366-3.7-7.359,1.356.252,3.1-.575,6.038-8l.523.339,8.792,5.7s-1.417,2.918-2.554,5.745c-.956,2.374-1.712,4.686-1.269,5.157" transform="translate(-256.318 -434.319)" fill="#ffb27d"/>
                    <path id="Path_190" data-name="Path 190" d="M397.1,631.318s-.213.627-1.537,3.34c-4.973-3.223-6.758-5.843-7.748-8.483Z" transform="translate(-270.274 -436.386)" fill="#ed975d"/>
                    <path id="Path_191" data-name="Path 191" d="M397.171,591.8s-13.425-2.256-11.89-10.595.834-14.246,9.471-13.157,9.711,4.575,9.876,7.483-3.925,16.641-7.456,16.269" transform="translate(-268.42 -395.79)" fill="#ffb27d"/>
                    <path id="Path_192" data-name="Path 192" d="M395.8,569.29s-8.879,7.153-14.77,7.558-8.052-1.553-8.052-1.553a22.944,22.944,0,0,0,5.792-7.327,4.131,4.131,0,0,1,3.484-2.321c4.2-.223,12.158-.125,13.545,3.643" transform="translate(-259.931 -394.156)" fill="#233862"/>
                    <path id="Path_193" data-name="Path 193" d="M430.544,571.568a21.267,21.267,0,0,1,3.636,4.989c.811,2.028.916,6.816.154,8.692,0,0,4.789-8.6,2.383-12.935-2.552-4.6-6.173-.746-6.173-.746" transform="translate(-300.049 -397.278)" fill="#233862"/>
                    <path id="Path_194" data-name="Path 194" d="M330.124,678.541c-7.639,26.224,4.094,21.524.526,23.23-.86.41-6.39,7.68-21.547,7.28-8.39-.221-19.626-4.054-19.755-5.694-.442-5.675,4.981-18.095,5.6-26.427.069-.885.119-1.85.157-2.906.2-5.785-.554-7.979,6.442-15.437,6.342-6.754,13.01-11.823,13.335-11.485,9.2,9.554,11.083,4.186,11.083,4.186s7.884,14.462,4.157,27.253" transform="translate(-201.63 -450.96)" fill="#f9ddbf"/>
                    <path id="Path_195" data-name="Path 195" d="M403.755,660.949s10.73,5,10.718,10.242,3.814,44.964,3.814,44.964-14.938-2.717-16.864-6.105,2.551-33.966,2.551-33.966Z" transform="translate(-279.419 -460.621)" fill="#afcdfb"/>
                    <path id="Path_196" data-name="Path 196" d="M407.043,655.769l-.744,1.57c.069,4.75-1.508,18.937-1.707,30.194l6.027-14.539-1.2-1.692,1.167-1.97L408.16,658.3Z" transform="translate(-281.963 -457.011)" fill="#95b3ef"/>
                    <path id="Path_197" data-name="Path 197" d="M287.08,694.1l-.235,6.844-.076,2.292-1.562,45.686a140.545,140.545,0,0,1-35.369-2.8s8.15-37.585,9.035-41.995c1.165-5.793,6.3-29.767,6.3-29.767l2.466,10.944,10.815-17.123,5.786-1.639Z" transform="translate(-174.113 -464.519)" fill="#afcdfb"/>
                    <rect id="Rectangle_70" data-name="Rectangle 70" width="8.701" height="31.608" transform="translate(135.647 199.855) rotate(-24.737)" fill="#233862"/>
                    <rect id="Rectangle_71" data-name="Rectangle 71" width="4.157" height="15.103" transform="matrix(0.908, -0.418, 0.418, 0.908, 136.039, 194.507)" fill="#233862"/>
                    <path id="Path_198" data-name="Path 198" d="M398.057,713.216l6.905-1.066c-.019-.127-1.934-13.034,1.415-23.112,3.363-10.117,14.808-11.979,14.923-12l-1.056-6.906c-.643.1-15.8,2.571-20.5,16.7-3.891,11.7-1.782,25.787-1.691,26.381" transform="translate(-276.955 -467.024)" fill="#233862"/>
                    <path id="Path_199" data-name="Path 199" d="M363.883,810.687h29.87V809a6.256,6.256,0,0,0-6.256-6.256H371.406a7.523,7.523,0,0,0-7.523,7.522Z" transform="translate(-253.593 -559.437)" fill="#233862"/>
                    <rect id="Rectangle_72" data-name="Rectangle 72" width="32.324" height="2.329" transform="translate(125.225 234.209)" fill="#233862"/>
                    <rect id="Rectangle_73" data-name="Rectangle 73" width="22.416" height="3.973" transform="translate(135.133 247.277)" fill="#233862"/>
                    <rect id="Rectangle_74" data-name="Rectangle 74" width="7.084" height="1.617" transform="translate(143.866 245.66)" fill="#233862"/>
                    <path id="Path_200" data-name="Path 200" d="M444.822,805.837a15.979,15.979,0,0,0,2.3,2.5,1.693,1.693,0,0,0,.934.2l-1.167-2.1Z" transform="translate(-310 -561.595)" fill="#ffb27d"/>
                    <path id="Path_201" data-name="Path 201" d="M443.5,798.25l5.033,2.444a.9.9,0,0,1-.834.322,12.021,12.021,0,0,1-2.183-.6Z" transform="translate(-309.08 -556.307)" fill="#ffb27d"/>
                    <path id="Path_202" data-name="Path 202" d="M411.846,798.959s8.262-1.839,9.6-1.106,4.591,3.4,5,4.332-2.968-.706-4.066-1c-.711-.191-2.583.459-3.509.769a11.663,11.663,0,0,1-6.289.631Z" transform="translate(-287.018 -555.911)" fill="#ffb27d"/>
                    <path id="Path_203" data-name="Path 203" d="M289.41,764.032s1.831,27.556,24.2,28.69l1.048-19.358Z" transform="translate(-201.692 -532.461)" fill="#95b3ef"/>
                    <rect id="Rectangle_75" data-name="Rectangle 75" width="117.003" height="3.303" transform="translate(97.513 250.719)" fill="#1c468a"/>
                    <path id="Path_204" data-name="Path 204" d="M690.161,931.6c-.242-.344-.745-1.058-3.905-49-1.556-23.614-3-47.355-3.019-47.592l1.236-.075c1.578,25.878,5.866,93.58,6.749,96.045a.416.416,0,0,0-.048-.086Z" transform="translate(-476.153 -581.871)" fill="#1c468a"/>
                    <path id="Path_205" data-name="Path 205" d="M315.972,931.078l-1.013-.713a.4.4,0,0,0-.047.085c.886-2.455,5.328-69.788,6.966-95.525l1.236.078c-.015.236-1.518,23.846-3.128,47.332-3.269,47.684-3.772,48.4-4.014,48.742" transform="translate(-219.464 -581.867)" fill="#1c468a"/>
                    <path id="Path_206" data-name="Path 206" d="M346.259,750.061l-.076,2.292c-.982.166-3.387.235-7.846-1.524-6.135-2.419-1.777-18.36-1.3-12.543.6,7.345,7.245,10.881,9.225,11.776" transform="translate(-233.528 -513.633)" fill="#95b3ef"/>
                    <path id="Path_207" data-name="Path 207" d="M314.218,645.147s-12.365,1.862-16.245,4.789c-7.406,5.588-11.563,35.263-6.774,41.026,5.393,6.49,35.87,5.321,35.87,5.321a20.183,20.183,0,0,0-.73-3.626c-.607-2.085-20.019-8.708-20.615-9.757s-1.132-15.832-.453-18.3,8.948-19.453,8.948-19.453" transform="translate(-201.51 -449.609)" fill="#afcdfb"/>
                    <path id="Path_208" data-name="Path 208" d="M359.2,642.716,357.531,677.5l-6.6-17.378,1.448-1.758a33.167,33.167,0,0,1-.9-4.206c.106-.387,3.487-10.545,3.487-10.545Z" transform="translate(-244.565 -447.915)" fill="#95b3ef"/>
                    <path id="Path_209" data-name="Path 209" d="M2423.875,646.913a2.137,2.137,0,0,0-.833-.79,15.657,15.657,0,0,1-1.873-2.635c-.281-.755-1.065-.1-1.2.656-.046.251.5.979.574,1.239-1.576-.165-.5-1.232-3.808-.369,0,0-1.138,4.087,1.073,5.532s4.907,1.748,6.51.637l2.157-.447.241-3.758Z" transform="translate(-1684.036 -448.22)" fill="#ffb27d"/>
                    <path id="Path_210" data-name="Path 210" d="M2492.361,528.778s18.256,16.867-7.662,36.1c-7,5.193-39.015,7.156-39.015,7.156s-1.129-3.925.932-5.7c0,0,22.592-7.955,26.855-8.865,2.361-.5.239-21.391,4.943-26.208s13.948-2.49,13.948-2.49" transform="translate(-1704.2 -368.119)" fill="#95b3ef"/>
                    <path id="Path_211" data-name="Path 211" d="M2614.445,1111.144s-.58,9.362-2.392,9.5c-.241.018-9.186.018-9.186.018l-11.419-.066a3.705,3.705,0,0,1,3.412-3.333c3.338-.582,8.925-2.927,10.947-7.339,2.127-4.641,8.637,1.225,8.637,1.225" transform="translate(-1806 -772.267)" fill="#163560"/>
                    <path id="Path_212" data-name="Path 212" d="M2580.419,854.472a23.8,23.8,0,0,1-6.181,1.161,22.7,22.7,0,0,1-5.771-.824s-.654-6.32-4.25-20.245c-1.886-7.3-4.579-16.683-8.409-28.345-10.592-32.229-13.812-51.082-14.107-52.868-.016-.094-.021-.141-.021-.141l.034-.015,32.563-14.3s-4.024,44.418,1.11,61.467a71.94,71.94,0,0,1,1.864,8.168c3.243,18.519,3.167,45.938,3.167,45.938" transform="translate(-1771.316 -514.945)" fill="#f99746"/>
                    <path id="Path_213" data-name="Path 213" d="M2577.3,808.533l-13.034,26.031c-1.886-7.3-4.578-16.683-8.409-28.345-10.591-32.229-13.812-51.082-14.106-52.868,0-.053.006-.1.012-.156l32.563-14.3s-4.025,44.419,1.111,61.468a71.918,71.918,0,0,1,1.864,8.168" transform="translate(-1771.365 -514.944)" fill="#ed7d2b"/>
                    <path id="Path_214" data-name="Path 214" d="M2530.532,1111.144s-.581,9.362-2.392,9.5c-.24.018-9.186.018-9.186.018l-11.419-.066a3.7,3.7,0,0,1,3.412-3.333c3.338-.582,8.925-2.927,10.947-7.339,2.127-4.641,8.637,1.225,8.637,1.225" transform="translate(-1747.52 -772.267)" fill="#163560"/>
                    <path id="Path_215" data-name="Path 215" d="M2522.476,742.35a463.56,463.56,0,0,0,4.557,64.125c4.98,35.341,3.292,50.343,3.292,50.343a33.927,33.927,0,0,0,4.8,1.221,21.78,21.78,0,0,0,7.125-.824s7.128-35.354,5.084-53.043,9.761-60.7,9.761-60.7Z" transform="translate(-1757.925 -517.35)" fill="#f99746"/>
                    <path id="Path_216" data-name="Path 216" d="M2564.264,489.7l-4,6.459-9.049,2.322c-.2-.726-.944-3.768-1.617-6.524-.039-.163-.078-.326-.118-.485-.571-2.347-1.058-4.364-1.058-4.364l6.181-7.05,2.3-2.629c.014.049.884,2.488,1.013,2.843a21.864,21.864,0,0,0,6.349,9.427" transform="translate(-1776.01 -332.722)" fill="#ffb27d"/>
                    <path id="Path_217" data-name="Path 217" d="M2513.466,585.824c.131,15.192,1.144,50.734,1.889,51.457,7.913,7.639,42.719-2.094,44.565-10.509s-7.013-107.9-20.529-111.872c-2.8-.823-14.282,2.595-14.282,2.595s-5.868,7.581-7.41,15.42c-.572,2.9-2.438,23.625-3.527,37.472-.287,3.691-.522,6.893-.661,9.138-.057.928-.069,3.189-.044,6.3" transform="translate(-1751.644 -358.75)" fill="#afcdfb"/>
                    <path id="Path_218" data-name="Path 218" d="M2557.381,485.331c-.361,3.688-5.562,9.151-7.788,11.305-.039-.163-.078-.326-.118-.485-.571-2.347-1.058-4.364-1.058-4.364l6.181-7.05c1.708-.824,2.934-.926,2.783.593" transform="translate(-1776.01 -337.406)" fill="#fca56b"/>
                    <path id="Path_219" data-name="Path 219" d="M2521.1,454.279s14.347-1.921,13.013-10.836-.38-15.169-9.6-14.319-10.483,4.517-10.761,7.6,3.579,17.824,7.345,17.554" transform="translate(-1751.842 -299.007)" fill="#ffb27d"/>
                    <path id="Path_220" data-name="Path 220" d="M2507.476,423.3s5.043,8.751,6.746,7.477,3.277-2.364,4.28.515,5.476,5.721,8.307,4.554c5.95-2.451,5.02-20.6,2.1-22.7-8.42-6.047-32.745,3.259-21.435,10.153" transform="translate(-1745.426 -286.565)" fill="#163560"/>
                    <path id="Path_221" data-name="Path 221" d="M2545.566,506.628c.178-.075,11.333-5.1,12.515-4.713s2.222,4.2,2.222,4.2a44.585,44.585,0,0,0-17.569,6.58s.558-5.114,2.832-6.072" transform="translate(-1772.05 -349.775)" fill="#95b3ef"/>
                    <path id="Path_222" data-name="Path 222" d="M2516.2,624.313c33.024-22.364,30.333-53.123,30.333-53.123-12.885,7.269-25.658,24.476-29.629,37.685-.287,3.691-.522,6.893-.661,9.138-.056.928-.069,3.189-.043,6.3" transform="translate(-1753.552 -398.068)" fill="#95b3ef"/>
                    <path id="Path_223" data-name="Path 223" d="M2124.95,762.049h0a20.7,20.7,0,0,1-20.7-20.7V610.6h41.4V741.347a20.7,20.7,0,0,1-20.7,20.7" transform="translate(-1466.466 -425.536)" fill="#cde3fd"/>
                    <path id="Path_224" data-name="Path 224" d="M2169.585,759.6c-2.281-18.823-.739-58.742-.723-59.143l.6.024c-.015.4-1.555,40.271.719,59.046Z" transform="translate(-1511.131 -488.154)" fill="#a8d29f"/>
                    <path id="Path_225" data-name="Path 225" d="M2137.488,690.525c.218.145-3.64-5.563-7.15-4.557s-7.482,4.772-7.482,4.772a65.141,65.141,0,0,1,7.391.763c2.281.5,5.845-1.91,7.241-.978" transform="translate(-1479.433 -477.975)" fill="#82b378"/>
                    <path id="Path_226" data-name="Path 226" d="M2171.1,691.359a4.6,4.6,0,0,1,2.558-4.228,4.124,4.124,0,0,1,.252,2.9c-.533,1.275-2.81,1.325-2.81,1.325" transform="translate(-1513.049 -478.868)" fill="#82b378"/>
                    <path id="Path_227" data-name="Path 227" d="M2170.95,705.353a11.034,11.034,0,0,1,4.225-1.185c1.7.086,3.76,4.236,3.76,4.236a21.275,21.275,0,0,1-4.689-.12c-1.2-.364-2.26-3.138-3.3-2.932" transform="translate(-1512.951 -490.738)" fill="#82b378"/>
                    <path id="Path_228" data-name="Path 228" d="M2135.636,724.763s-4.822-3-8.378-2.186-6.636,5.764-6.636,5.764,4.174.925,6.408.38a14.441,14.441,0,0,0,5.783-3.133c.716-.852,2.823-.824,2.823-.824" transform="translate(-1477.877 -503.472)" fill="#a8d29f"/>
                    <path id="Path_229" data-name="Path 229" d="M2160.931,716.276a3.421,3.421,0,0,0-.918-3.286c-1.458-1.192-1.9-1.549-1.9-1.549a5.747,5.747,0,0,0,.251,2.737c.506,1.188,2.569,2.1,2.569,2.1" transform="translate(-1503.959 -495.81)" fill="#82b378"/>
                    <path id="Path_230" data-name="Path 230" d="M2169.772,749.2s6.982-4.474,12-2.19,7.142,8.506,7.142,8.506-8.462.558-11.437-1.378-3.021-5.09-4.281-5.156a24.952,24.952,0,0,0-3.428.219" transform="translate(-1512.13 -520.146)" fill="#a8d29f"/>
                    <path id="Path_231" data-name="Path 231" d="M2142.026,758.749s-1.027-3.883-4.718-4.076-6.89,5.081-6.89,5.081a23.088,23.088,0,0,0,5.41.675c1.916-.166,3.6-3.329,4.6-2.755a12.032,12.032,0,0,1,1.595,1.074" transform="translate(-1484.704 -525.935)" fill="#82b378"/>
                    <path id="Path_232" data-name="Path 232" d="M2137.183,918.493h0a15.381,15.381,0,0,1-15.382-15.381V843.705h30.763v59.407a15.381,15.381,0,0,1-15.381,15.381" transform="translate(-1478.699 -587.985)" fill="#95b3ef"/>
                    <path id="Path_233" data-name="Path 233" d="M2137.076,603.243h-45.394a3,3,0,0,1,0-5.991h45.394a3,3,0,1,1,0,5.991" transform="translate(-1455.621 -416.23)" fill="#95b3ef"/>
                    <path id="Path_234" data-name="Path 234" d="M2344.209,591.685h-22.58a3.943,3.943,0,0,1-3.932-3.932v-9.188a3.943,3.943,0,0,1,3.932-3.932h22.58a3.943,3.943,0,0,1,3.932,3.932v9.188a3.943,3.943,0,0,1-3.932,3.932" transform="translate(-1615.22 -400.468)" fill="#f9ddbf"/>
                    <path id="Path_235" data-name="Path 235" d="M2318.432,762.049h0a20.7,20.7,0,0,1-20.7-20.7V610.6h41.4V741.347a20.7,20.7,0,0,1-20.7,20.7" transform="translate(-1601.305 -425.536)" fill="#cde3fd"/>
                    <path id="Path_236" data-name="Path 236" d="M2330.763,854.987h-.2a15.284,15.284,0,0,1-15.283-15.284V752.579h30.762V839.7a15.283,15.283,0,0,1-15.283,15.284" transform="translate(-1613.539 -524.479)" fill="#f1a34f"/>
                    <path id="Path_237" data-name="Path 237" d="M2330.558,603.243h-45.394a3,3,0,0,1,0-5.991h45.394a3,3,0,1,1,0,5.991" transform="translate(-1590.46 -416.23)" fill="#95b3ef"/>
                    <rect id="Rectangle_76" data-name="Rectangle 76" width="1.553" height="28.094" transform="translate(627.993 320.037)" fill="#2e3552"/>
                    <rect id="Rectangle_77" data-name="Rectangle 77" width="1.553" height="28.094" transform="translate(744.97 320.037)" fill="#2e3552"/>
                    <rect id="Rectangle_78" data-name="Rectangle 78" width="118.53" height="3.619" transform="translate(627.993 320.037)" fill="#2e3552"/>
                    <path id="Path_238" data-name="Path 238" d="M2396.594,707.152a2.135,2.135,0,0,0-.99-.58,24.279,24.279,0,0,1-2.977-2.654s-.468.182-.273.96a12.855,12.855,0,0,0,.648,1.543,12.2,12.2,0,0,0-4.818,1.448,2.62,2.62,0,0,0-1.44,1.835c-.15.784.038,1.663,1.444,1.97.972.212,1.638-.713,4.12.192s4.382.791,5.688-.656l2-.926-.62-3.715Z" transform="translate(-1663.309 -490.567)" fill="#ffb27d"/>
                    <path id="Path_239" data-name="Path 239" d="M2472.843,526.3s28.053,5.341-8.253,45.966c-5.807,6.5-38.368,15.816-38.368,15.816s-1.992-3.566-.388-5.758c0,0,22.839-15.229,26.483-17.011,2.169-1.061,8.168-26.2,11.653-31.963a15.713,15.713,0,0,1,8.874-7.049" transform="translate(-1690.146 -366.785)" fill="#afcdfb"/>
                    <path id="Path_240" data-name="Path 240" d="M936.8,1151.833H27.384a1.268,1.268,0,0,1-1.264-1.265v-1.093a1.268,1.268,0,0,1,1.264-1.264H936.8a1.268,1.268,0,0,1,1.265,1.264v1.093a1.268,1.268,0,0,1-1.265,1.265" transform="translate(-18.203 -800.198)" fill="#2e3552"/>
                    <g id="Group_9" data-name="Group 9" transform="translate(604.882 67.607)" opacity="0.6">
                        <g id="Group_8" data-name="Group 8">
                            <g id="Group_7" data-name="Group 7" clip-path="url(#clip-path-5)">
                                <rect id="Rectangle_79" data-name="Rectangle 79" width="112.817" height="84.55" transform="translate(-0.001 0)" fill="#fff"/>
                            </g>
                        </g>
                    </g>
                    <path id="Path_241" data-name="Path 241" d="M2044.186,376.657h-15.875a3.729,3.729,0,0,1-3.489-5.047l6.855-18.147V331.825h9.548V353.47l6.474,18.209a3.729,3.729,0,0,1-3.514,4.978M2032.9,333.051v20.637l-6.934,18.356a2.5,2.5,0,0,0,2.342,3.389h15.875a2.5,2.5,0,0,0,2.359-3.343L2040,353.681V333.051Z" transform="translate(-1410.946 -231.253)" fill="#afcdfb"/>
                    <path id="Path_242" data-name="Path 242" d="M2050.234,444.692h-10.7a2.562,2.562,0,0,1-2.4-3.466l2.652-7.023.281-.03a6.7,6.7,0,0,1,3.933.605c1.312.759,2.279.48,3.742.056.458-.132.978-.282,1.549-.408a1.142,1.142,0,0,0,.308-.113l.476-.268,2.57,7.228a2.561,2.561,0,0,1-2.411,3.419m-9.789-9.631-2.451,6.489a1.642,1.642,0,0,0,1.536,2.223h10.7a1.642,1.642,0,0,0,1.545-2.192l-2.23-6.272-.059.014c-.544.12-1.027.259-1.493.394-1.506.436-2.807.812-4.458-.144a5.539,5.539,0,0,0-3.1-.512" transform="translate(-1419.578 -302.49)" fill="#afcdfb"/>
                    <path id="Path_243" data-name="Path 243" d="M2055.48,332.477h-8.738a1.081,1.081,0,1,1,0-2.162h8.738a1.081,1.081,0,0,1,0,2.162" transform="translate(-1425.636 -230.2)" fill="#afcdfb"/>
                    <rect id="Rectangle_81" data-name="Rectangle 81" width="26.341" height="1.51" transform="translate(671.229 119.534)" fill="#afcdfb"/>
                    <rect id="Rectangle_82" data-name="Rectangle 82" width="10.155" height="1.51" transform="translate(671.229 122.974)" fill="#afcdfb"/>
                    <rect id="Rectangle_83" data-name="Rectangle 83" width="11.902" height="1.51" transform="translate(682.806 122.974)" fill="#afcdfb"/>
                    <rect id="Rectangle_84" data-name="Rectangle 84" width="19.682" height="1.51" transform="translate(671.229 126.413)" fill="#afcdfb"/>
                    <path id="Path_244" data-name="Path 244" d="M2183.131,312.181a8.241,8.241,0,1,1,8.241-8.241,8.25,8.25,0,0,1-8.241,8.241m0-15.214a6.973,6.973,0,1,0,6.973,6.973,6.981,6.981,0,0,0-6.973-6.973" transform="translate(-1515.697 -206.076)" fill="#afcdfb"/>
                    <path id="Path_245" data-name="Path 245" d="M2099.572,264.528a5.294,5.294,0,1,1,5.294-5.294,5.3,5.3,0,0,1-5.294,5.294m0-9.742a4.448,4.448,0,1,0,4.448,4.448,4.453,4.453,0,0,0-4.448-4.448" transform="translate(-1459.518 -176.975)" fill="#afcdfb"/>
                    <path id="Path_246" data-name="Path 246" d="M2170.967,262.553a4.306,4.306,0,1,1,4.307-4.306,4.311,4.311,0,0,1-4.307,4.306m0-7.767a3.461,3.461,0,1,0,3.461,3.461,3.465,3.465,0,0,0-3.461-3.461" transform="translate(-1509.962 -176.975)" fill="#afcdfb"/>
                    <path id="Path_247" data-name="Path 247" d="M2296.714,333.678a7.164,7.164,0,1,1,7.163-7.164,7.172,7.172,0,0,1-7.163,7.164m0-13.482a6.318,6.318,0,1,0,6.318,6.318,6.326,6.326,0,0,0-6.318-6.318" transform="translate(-1595.604 -222.559)" fill="#afcdfb"/>
                    <path id="Path_248" data-name="Path 248" d="M2137.664,405.046a5.678,5.678,0,1,1,5.677-5.678,5.684,5.684,0,0,1-5.677,5.678m0-10.51a4.832,4.832,0,1,0,4.832,4.832,4.838,4.838,0,0,0-4.832-4.832" transform="translate(-1485.797 -274.367)" fill="#afcdfb"/>
                    <rect id="Rectangle_85" data-name="Rectangle 85" width="0.677" height="19.049" transform="translate(644.149 84.897) rotate(-59.105)" fill="#afcdfb"/>
                    <rect id="Rectangle_86" data-name="Rectangle 86" width="18.429" height="0.677" transform="translate(654.189 120.281) rotate(-60.9)" fill="#afcdfb"/>
                    <rect id="Rectangle_87" data-name="Rectangle 87" width="0.677" height="20.177" transform="matrix(0.154, -0.988, 0.988, 0.154, 674.379, 101.187)" fill="#afcdfb"/>
                    <rect id="Rectangle_88" data-name="Rectangle 88" width="0.5" height="6.307" transform="translate(662.286 84.945) rotate(-22.087)" fill="#afcdfb"/>
                    <rect id="Rectangle_89" data-name="Rectangle 89" width="30.683" height="1.012" transform="translate(645.398 142.71)" fill="#afcdfb"/>
                    <rect id="Rectangle_90" data-name="Rectangle 90" width="30.683" height="1.012" transform="translate(645.398 139.905)" fill="#afcdfb"/>
                    <rect id="Rectangle_91" data-name="Rectangle 91" width="30.683" height="1.012" transform="translate(645.398 137.099)" fill="#afcdfb"/>
                    <rect id="Rectangle_92" data-name="Rectangle 92" width="30.683" height="1.012" transform="translate(681.654 142.71)" fill="#afcdfb"/>
                    <rect id="Rectangle_93" data-name="Rectangle 93" width="30.683" height="1.012" transform="translate(681.654 139.905)" fill="#afcdfb"/>
                    <rect id="Rectangle_94" data-name="Rectangle 94" width="30.683" height="1.012" transform="translate(681.654 137.099)" fill="#afcdfb"/>
                    <path id="Path_249" data-name="Path 249" d="M2279.773,253.382h-5.638l-2.82-4.883,2.82-4.883h5.638l2.819,4.883Zm-5.449-.327h5.261l2.631-4.556-2.631-4.556h-5.261l-2.631,4.556Z" transform="translate(-1582.896 -169.778)" fill="#afcdfb"/>
                    <path id="Path_250" data-name="Path 250" d="M2250.74,270.225H2245.1l-2.819-4.883,2.819-4.883h5.639l2.819,4.883Zm-5.45-.327h5.261l2.631-4.556-2.631-4.556h-5.261l-2.631,4.556Z" transform="translate(-1562.663 -181.516)" fill="#afcdfb"/>
                    <path id="Path_251" data-name="Path 251" d="M2308.068,270.225h-5.639l-2.819-4.883,2.819-4.883h5.639l2.819,4.883Zm-5.45-.327h5.261l2.631-4.556-2.631-4.556h-5.261l-2.631,4.556Z" transform="translate(-1602.615 -181.516)" fill="#afcdfb"/>
                    <rect id="Rectangle_95" data-name="Rectangle 95" width="14.537" height="0.969" transform="translate(611.812 75.203)" fill="#afcdfb"/>
                    <rect id="Rectangle_96" data-name="Rectangle 96" width="14.537" height="0.969" transform="translate(611.812 77.973)" fill="#afcdfb"/>
                    <rect id="Rectangle_97" data-name="Rectangle 97" width="14.537" height="0.969" transform="translate(611.812 80.788)" fill="#afcdfb"/>
                    <rect id="Rectangle_98" data-name="Rectangle 98" width="14.537" height="0.969" transform="translate(611.812 83.34)" fill="#afcdfb"/>
                </g>
            </g>
        </g>
    </g>
</svg>
