<?xml version="1.0" encoding="utf-8"?>
<!-- Generator: Adobe Illustrator 26.0.2, SVG Export Plug-In . SVG Version: 6.00 Build 0)  -->
<svg version="1.1" id="visual" xmlns="http://www.w3.org/2000/svg" xmlns:xlink="http://www.w3.org/1999/xlink" x="0px" y="0px"
	 viewBox="0 0 960 115.2" style="enable-background:new 0 0 960 115.2;" xml:space="preserve">
<style type="text/css">
	.st0{fill:#087F5B;}
	.st1{fill:#139361;}
	.st2{fill:#25A765;}
	.st3{fill:#3ABB67;}
	.st4{fill:#51CF66;}
</style>
<path class="st0" d="M-3.1,16l22.9-0.2c23-0.1,68.8-0.5,114.8-4.3S226.3,0.3,272.3,0S364,6.3,410.1,8.8c46,2.5,92.2,0.9,138.3-1.3
	c46.1-2.2,91.9-4.8,137.9-4.3c45.9,0.5,91.7,4.1,137.7,5.3c45.9,1.2,91.7-0.2,114.8-0.8L961.6,7v74h-22.9c-23,0-68.8,0-114.8,0
	c-45.9,0-91.7,0-137.7,0c-45.9,0-91.7,0-137.9,0c-46,0-92.2,0-138.3,0c-46.1,0-91.9,0-137.9,0s-91.7,0-137.7,0s-91.7,0-114.8,0H-3.1
	V16z"/>
<path class="st1" d="M-3.1,10l22.9,4.5C42.8,19,88.7,28,134.6,30.3c45.9,2.4,91.7-2,137.7-6.8S364,13.3,410.1,15
	c46,1.7,92.2,10.3,138.3,10.2c46.1-0.2,91.9-9.2,137.9-10.4c45.9-1.1,91.7,5.5,137.7,7.5c45.9,2,91.7-0.6,114.8-2l22.9-1.3v62h-22.9
	c-23,0-68.8,0-114.8,0c-45.9,0-91.7,0-137.7,0c-45.9,0-91.7,0-137.9,0c-46,0-92.2,0-138.3,0c-46.1,0-91.9,0-137.9,0s-91.7,0-137.7,0
	s-91.7,0-114.8,0H-3.1V10z"/>
<path class="st2" d="M-3.1,27l22.9,3.5C42.8,34,88.7,41,134.6,44.7c45.9,3.6,91.7,4,137.7,4s91.7-0.4,137.9-4.5
	c46-4.2,92.2-12.2,138.3-14.7c46.1-2.5,91.9,0.5,137.9,0.8c45.9,0.4,91.7-2,137.7-0.3c45.9,1.7,91.7,7.3,114.8,10.2l22.9,2.8v38
	h-22.9c-23,0-68.8,0-114.8,0c-45.9,0-91.7,0-137.7,0c-45.9,0-91.7,0-137.9,0c-46,0-92.2,0-138.3,0c-46.1,0-91.9,0-137.9,0
	s-91.7,0-137.7,0s-91.7,0-114.8,0H-3.1V27z"/>
<path class="st3" d="M-3.1,36l22.9,0.3c23,0.4,68.8,1,114.8,4.9C180.5,45,226.3,52,272.3,54.8c45.9,2.9,91.7,1.5,137.9,0.9
	c46-0.7,92.2-0.7,138.3-0.2C594.5,56,640.3,57,686.3,56c45.9-1,91.7-4,137.7-6.7c45.9-2.6,91.7-5,114.8-6.1l22.9-1.2v39h-22.9
	c-23,0-68.8,0-114.8,0c-45.9,0-91.7,0-137.7,0c-45.9,0-91.7,0-137.9,0c-46,0-92.2,0-138.3,0c-46.1,0-91.9,0-137.9,0s-91.7,0-137.7,0
	s-91.7,0-114.8,0H-3.1V36z"/>
<path class="st4" d="M-3.1,58l22.9,1.5c23,1.5,68.8,4.5,114.8,3.7c45.9-0.9,91.7-5.5,137.7-6.2s91.7,2.7,137.9,3.3
	c46,0.7,92.2-1.3,138.3-1.5c46.1-0.1,91.9,1.5,137.9,1.5c45.9,0,91.7-1.6,137.7-3.1c45.9-1.5,91.7-2.9,114.8-3.5l22.9-0.7v28h-22.9
	c-23,0-68.8,0-114.8,0c-45.9,0-91.7,0-137.7,0c-45.9,0-91.7,0-137.9,0c-46,0-92.2,0-138.3,0c-46.1,0-91.9,0-137.9,0s-91.7,0-137.7,0
	s-91.7,0-114.8,0H-3.1V58z"/>
<path class="st4" d="M-3.1,104.9l10-2c10-2,30.1-6,50.2-8.3c20.1-2.4,40.2-3,60.3-2.2s40.2,3.2,60.3,5.5s40.2,4.7,60.3,3.5
	s40.2-5.8,60.3-4.7c20.1,1.2,40.2,8.2,60.3,9.5c20.1,1.4,40.2-3,60.3-5.6c20.1-2.7,40.2-3.7,60.3-1.7c20.1,2,40.2,7,60.3,6.5
	c20.1-0.5,40.2-6.5,60.3-6.2c20.1,0.4,40.2,7,60.3,11s40.2,5.4,60.3,4.9c20.1-0.5,40.2-2.9,60.3-4.9s40.2-3.6,60.3-6.8
	s40.2-7.8,60.3-9.7c20.1-1.8,40.2-0.8,50.2-0.3l10,0.5v-16h-10c-10,0-30.1,0-50.2,0c-20.1,0-40.2,0-60.3,0s-40.2,0-60.3,0
	s-40.2,0-60.3,0c-20.1,0-40.2,0-60.3,0s-40.2,0-60.3,0s-40.2,0-60.3,0c-20.1,0-40.2,0-60.3,0c-20.1,0-40.2,0-60.3,0
	c-20.1,0-40.2,0-60.3,0c-20.1,0-40.2,0-60.3,0c-20.1,0-40.2,0-60.3,0s-40.2,0-60.3,0s-40.2,0-60.3,0s-40.2,0-60.3,0s-40.2,0-50.2,0
	h-10V104.9z"/>
</svg>
