<?xml version="1.0" encoding="utf-8"?>
<!-- Generator: Adobe Illustrator 26.0.2, SVG Export Plug-In . SVG Version: 6.00 Build 0)  -->
<svg version="1.1" id="visual" xmlns="http://www.w3.org/2000/svg" xmlns:xlink="http://www.w3.org/1999/xlink" x="0px" y="0px"
	 viewBox="0 0 960 84" style="enable-background:new 0 0 960 84;" xml:space="preserve">
<style type="text/css">
	.st0{fill:#087F5B;}
	.st1{fill:#139361;}
	.st2{fill:#25A765;}
	.st3{fill:#3ABB67;}
	.st4{fill:#51CF66;}
</style>
<path class="st0" d="M0,20l22.8-0.2c22.9-0.1,68.5-0.5,114.2-4.3S228.3,4.3,274,4s91.3,6.3,137.2,8.8c45.8,2.5,91.8,0.9,137.6-1.3
	c45.9-2.2,91.5-4.8,137.2-4.3s91.3,4.1,137,5.3s91.3-0.2,114.2-0.8L960,11v74h-22.8c-22.9,0-68.5,0-114.2,0s-91.3,0-137,0
	s-91.3,0-137.2,0c-45.8,0-91.8,0-137.6,0c-45.9,0-91.5,0-137.2,0s-91.3,0-137,0s-91.3,0-114.2,0H0V20z"/>
<path class="st1" d="M0,14l22.8,4.5C45.7,23,91.3,32,137,34.3c45.7,2.4,91.3-2,137-6.8s91.3-10.2,137.2-8.5
	C457,20.7,503,29.3,548.8,29.2C594.7,29,640.3,20,686,18.8c45.7-1.1,91.3,5.5,137,7.5s91.3-0.6,114.2-2L960,23v62h-22.8
	c-22.9,0-68.5,0-114.2,0s-91.3,0-137,0s-91.3,0-137.2,0c-45.8,0-91.8,0-137.6,0c-45.9,0-91.5,0-137.2,0s-91.3,0-137,0
	s-91.3,0-114.2,0H0V14z"/>
<path class="st2" d="M0,31l22.8,3.5C45.7,38,91.3,45,137,48.7c45.7,3.6,91.3,4,137,4s91.3-0.4,137.2-4.5C457,44,503,36,548.8,33.5
	C594.7,31,640.3,34,686,34.3c45.7,0.4,91.3-2,137-0.3s91.3,7.3,114.2,10.2L960,47v38h-22.8c-22.9,0-68.5,0-114.2,0s-91.3,0-137,0
	s-91.3,0-137.2,0c-45.8,0-91.8,0-137.6,0c-45.9,0-91.5,0-137.2,0s-91.3,0-137,0s-91.3,0-114.2,0H0V31z"/>
<path class="st3" d="M0,40l22.8,0.3c22.9,0.4,68.5,1,114.2,4.9C182.7,49,228.3,56,274,58.8c45.7,2.9,91.3,1.5,137.2,0.9
	C457,59,503,59,548.8,59.5C594.7,60,640.3,61,686,60s91.3-4,137-6.7c45.7-2.6,91.3-5,114.2-6.1L960,46v39h-22.8
	c-22.9,0-68.5,0-114.2,0s-91.3,0-137,0s-91.3,0-137.2,0c-45.8,0-91.8,0-137.6,0c-45.9,0-91.5,0-137.2,0s-91.3,0-137,0
	s-91.3,0-114.2,0H0V40z"/>
<path class="st4" d="M0,62l22.8,1.5C45.7,65,91.3,68,137,67.2c45.7-0.9,91.3-5.5,137-6.2s91.3,2.7,137.2,3.3
	C457,65,503,63,548.8,62.8c45.9-0.1,91.5,1.5,137.2,1.5s91.3-1.6,137-3.1s91.3-2.9,114.2-3.5L960,57v28h-22.8
	c-22.9,0-68.5,0-114.2,0s-91.3,0-137,0s-91.3,0-137.2,0c-45.8,0-91.8,0-137.6,0c-45.9,0-91.5,0-137.2,0s-91.3,0-137,0
	s-91.3,0-114.2,0H0V62z"/>
</svg>
