<?xml version="1.0" encoding="utf-8"?>
<!-- Generator: Adobe Illustrator 26.0.2, SVG Export Plug-In . SVG Version: 6.00 Build 0)  -->
<svg version="1.1" id="visual" xmlns="http://www.w3.org/2000/svg" xmlns:xlink="http://www.w3.org/1999/xlink" x="0px" y="0px"
	 viewBox="0 0 960 43" style="enable-background:new 0 0 960 43;" xml:space="preserve">
<style type="text/css">
	.st0{fill:#51CF66;}
</style>
<path class="st0" d="M0,27l10-2c10-2,30-6,50-8.3c20-2.4,40-3,60-2.2s40,3.2,60,5.5s40,4.7,60,3.5s40-5.8,60-4.7
	c20,1.2,40,8.2,60,9.5c20,1.4,40-3,60-5.6c20-2.7,40-3.7,60-1.7s40,7,60,6.5s40-6.5,60-6.2c20,0.4,40,7,60,11s40,5.4,60,4.9
	s40-2.9,60-4.9s40-3.6,60-6.8s40-7.8,60-9.7c20-1.8,40-0.8,50-0.3l10,0.5V0h-10c-10,0-30,0-50,0s-40,0-60,0s-40,0-60,0s-40,0-60,0
	s-40,0-60,0s-40,0-60,0s-40,0-60,0s-40,0-60,0s-40,0-60,0s-40,0-60,0s-40,0-60,0s-40,0-60,0s-40,0-60,0s-40,0-60,0S80,0,60,0
	S20,0,10,0H0V27z"/>
</svg>
